<?xml version="1.0" encoding="UTF-8"?>
<!DOCTYPE svg PUBLIC "-//W3C//DTD SVG 1.1//EN" "http://www.w3.org/Graphics/SVG/1.1/DTD/svg11.dtd">
<svg xmlns="http://www.w3.org/2000/svg" version="1.1" width="500px" height="500px" style="shape-rendering:geometricPrecision; text-rendering:geometricPrecision; image-rendering:optimizeQuality; fill-rule:evenodd; clip-rule:evenodd" xmlns:xlink="http://www.w3.org/1999/xlink">
<g><path style="opacity:1" fill="#fec600" d="M -0.5,-0.5 C 166.167,-0.5 332.833,-0.5 499.5,-0.5C 499.5,166.167 499.5,332.833 499.5,499.5C 332.833,499.5 166.167,499.5 -0.5,499.5C -0.5,332.833 -0.5,166.167 -0.5,-0.5 Z"/></g>
<g><path style="opacity:1" fill="#ed374e" d="M 371.5,174.5 C 339.94,195.977 304.94,205.477 266.5,203C 224.074,199.246 184.741,186.413 148.5,164.5C 148.214,167.929 148.214,171.263 148.5,174.5C 140.452,168.452 133.452,161.452 127.5,153.5C 127.5,146.5 127.5,139.5 127.5,132.5C 134.661,115.832 145.994,102.665 161.5,93C 182.3,78.7985 204.3,76.7985 227.5,87C 253.05,104.942 280.716,118.942 310.5,129C 325.746,130.394 340.08,134.727 353.5,142C 365.136,149.776 371.136,160.61 371.5,174.5 Z"/></g>
<g><path style="opacity:1" fill="#ca2136" d="M 153.5,126.5 C 153.735,125.903 154.235,125.57 155,125.5C 166.116,129.475 176.616,134.641 186.5,141C 192.426,144.921 197.759,149.588 202.5,155C 216.933,155.987 230.933,158.82 244.5,163.5C 251.142,164.331 257.809,164.831 264.5,165C 269.672,165.447 274.672,166.613 279.5,168.5C 280.631,166.926 280.798,165.259 280,163.5C 275.33,157.158 271.996,150.158 270,142.5C 269.333,137.5 269.333,132.5 270,127.5C 270.308,126.692 270.808,126.025 271.5,125.5C 272.798,133.143 273.965,140.81 275,148.5C 276,150.167 277,151.833 278,153.5C 280.468,147.231 283.468,141.231 287,135.5C 287.495,137.473 287.662,139.473 287.5,141.5C 291.049,141.439 294.382,142.273 297.5,144C 300.998,146.825 304.165,149.992 307,153.5C 311.984,151.277 317.151,150.111 322.5,150C 316.675,152.745 311.008,155.745 305.5,159C 308.36,160.076 311.36,160.909 314.5,161.5C 306.923,165.303 298.923,167.803 290.5,169C 274.804,169.579 259.137,169.079 243.5,167.5C 239.094,167.796 234.76,168.463 230.5,169.5C 229.304,169.154 229.304,168.654 230.5,168C 233.055,166.556 235.721,165.389 238.5,164.5C 215.532,158.972 192.199,156.472 168.5,157C 178.722,154.989 189.055,153.989 199.5,154C 184.304,144.57 168.971,135.404 153.5,126.5 Z"/></g>
<g><path style="opacity:1" fill="#df3149" d="M 127.5,153.5 C 133.452,161.452 140.452,168.452 148.5,174.5C 148.214,171.263 148.214,167.929 148.5,164.5C 184.741,186.413 224.074,199.246 266.5,203C 304.94,205.477 339.94,195.977 371.5,174.5C 370.824,202.022 359.491,223.856 337.5,240C 328.745,244.807 319.412,247.807 309.5,249C 264.833,249.667 220.167,249.667 175.5,249C 151.939,244.259 135.939,230.759 127.5,208.5C 127.335,204.818 127.501,201.152 128,197.5C 134.093,221.926 149.259,237.426 173.5,244C 220.833,244.667 268.167,244.667 315.5,244C 340.873,237.128 357.206,220.961 364.5,195.5C 364.167,194.5 363.833,193.5 363.5,192.5C 350.026,203.952 334.693,212.119 317.5,217C 304.677,220.261 291.677,222.594 278.5,224C 259.598,225.563 240.932,224.23 222.5,220C 208.926,216.253 195.592,211.919 182.5,207C 177.683,203.891 172.683,202.058 167.5,201.5C 169.5,204.833 171.5,208.167 173.5,211.5C 173,211.833 172.5,212.167 172,212.5C 155.847,208.422 141.181,201.422 128,191.5C 127.5,178.838 127.333,166.171 127.5,153.5 Z"/></g>
<g><path style="opacity:1" fill="#c82035" d="M 127.5,132.5 C 127.5,139.5 127.5,146.5 127.5,153.5C 127.333,166.171 127.5,178.838 128,191.5C 141.181,201.422 155.847,208.422 172,212.5C 172.5,212.167 173,211.833 173.5,211.5C 171.5,208.167 169.5,204.833 167.5,201.5C 172.683,202.058 177.683,203.891 182.5,207C 195.592,211.919 208.926,216.253 222.5,220C 240.932,224.23 259.598,225.563 278.5,224C 291.677,222.594 304.677,220.261 317.5,217C 334.693,212.119 350.026,203.952 363.5,192.5C 363.833,193.5 364.167,194.5 364.5,195.5C 357.206,220.961 340.873,237.128 315.5,244C 268.167,244.667 220.833,244.667 173.5,244C 149.259,237.426 134.093,221.926 128,197.5C 127.501,201.152 127.335,204.818 127.5,208.5C 126.167,183.167 126.167,157.833 127.5,132.5 Z"/></g>
<g><path style="opacity:1" fill="#323225" d="M 317.5,255.5 C 319.25,258.355 320.083,261.689 320,265.5C 322.267,266.935 324.267,266.602 326,264.5C 327.329,252.5 327.996,252.5 328,264.5C 325.451,268.925 322.118,269.592 318,266.5C 317.501,262.848 317.335,259.182 317.5,255.5 Z"/></g>
<g><path style="opacity:1" fill="#172127" d="M 354.5,255.5 C 356.414,258.684 357.08,262.351 356.5,266.5C 358.604,266.201 360.604,266.534 362.5,267.5C 359.914,268.48 357.247,268.813 354.5,268.5C 354.5,264.167 354.5,259.833 354.5,255.5 Z"/></g>
<g><path style="opacity:1" fill="#282d24" d="M 369.5,255.5 C 370.8,257.223 371.467,259.39 371.5,262C 371.167,264.167 370.833,266.333 370.5,268.5C 369.508,264.217 369.174,259.884 369.5,255.5 Z"/></g>
<g><path style="opacity:1" fill="#2c2e25" d="M 377.5,255.5 C 381.226,255.177 384.893,255.511 388.5,256.5C 387.311,257.429 385.978,257.762 384.5,257.5C 383.833,272.167 383.167,272.167 382.5,257.5C 380.219,257.923 378.552,257.256 377.5,255.5 Z"/></g>
<g><path style="opacity:1" fill="#2d2f25" d="M 84.5,257.5 C 87.6852,257.02 90.5185,257.686 93,259.5C 93.6678,264.329 91.5011,266.329 86.5,265.5C 86.762,266.978 86.4287,268.311 85.5,269.5C 84.5091,265.555 84.1758,261.555 84.5,257.5 Z"/></g>
<g><path style="opacity:1" fill="#1e2626" d="M 100.5,257.5 C 104.007,256.994 107.174,257.66 110,259.5C 110.756,261.809 110.256,263.809 108.5,265.5C 110.704,270.561 110.037,270.727 106.5,266C 105.207,265.51 103.873,265.343 102.5,265.5C 102.762,266.978 102.429,268.311 101.5,269.5C 100.509,265.555 100.176,261.555 100.5,257.5 Z"/></g>
<g><path style="opacity:1" fill="#2a2d25" d="M 126.5,257.5 C 124.5,258.167 122.5,258.833 120.5,259.5C 120.5,260.5 120.5,261.5 120.5,262.5C 128.5,263.167 128.5,263.833 120.5,264.5C 120.5,265.5 120.5,266.5 120.5,267.5C 122.924,267.192 125.257,267.526 127.5,268.5C 124.572,269.484 121.572,269.817 118.5,269.5C 118.5,265.5 118.5,261.5 118.5,257.5C 121.167,257.5 123.833,257.5 126.5,257.5 Z"/></g>
<g><path style="opacity:1" fill="#1d2526" d="M 155.5,257.5 C 156.794,259.048 157.461,261.048 157.5,263.5C 157.167,265.5 156.833,267.5 156.5,269.5C 155.509,265.555 155.176,261.555 155.5,257.5 Z"/></g>
<g><path style="opacity:1" fill="#897214" d="M 126.5,257.5 C 127.043,257.56 127.376,257.893 127.5,258.5C 125.257,259.474 122.924,259.808 120.5,259.5C 122.5,258.833 124.5,258.167 126.5,257.5 Z"/></g>
<g><path style="opacity:1" fill="#fbc400" d="M 86.5,259.5 C 88.1667,259.5 89.8333,259.5 91.5,259.5C 91.5,260.833 91.5,262.167 91.5,263.5C 89.8333,263.5 88.1667,263.5 86.5,263.5C 86.5,262.167 86.5,260.833 86.5,259.5 Z"/></g>
<g><path style="opacity:1" fill="#d8ab0d" d="M 102.5,258.5 C 107.667,257.492 109.334,259.325 107.5,264C 105.866,264.494 104.199,264.66 102.5,264.5C 102.5,262.5 102.5,260.5 102.5,258.5 Z"/></g>
<g><path style="opacity:1" fill="#262a25" d="M 134.5,257.5 C 135.675,257.281 136.675,257.614 137.5,258.5C 138.414,260.664 139.581,262.664 141,264.5C 142.419,262.664 143.586,260.664 144.5,258.5C 145.325,257.614 146.325,257.281 147.5,257.5C 147.824,261.555 147.491,265.555 146.5,269.5C 145.682,266.893 145.182,264.226 145,261.5C 143.92,263.996 142.586,266.33 141,268.5C 139.414,266.33 138.08,263.996 137,261.5C 136.818,264.226 136.318,266.893 135.5,269.5C 134.509,265.555 134.176,261.555 134.5,257.5 Z"/></g>
<g><path style="opacity:1" fill="#222726" d="M 339.5,255.5 C 340.675,255.281 341.675,255.614 342.5,256.5C 343.973,260.251 345.64,263.917 347.5,267.5C 347.167,267.833 346.833,268.167 346.5,268.5C 344.205,265.61 341.205,264.777 337.5,266C 336.953,266.925 336.287,267.758 335.5,268.5C 335.167,268.167 334.833,267.833 334.5,267.5C 336.731,263.708 338.398,259.708 339.5,255.5 Z"/></g>
<g><path style="opacity:1" fill="#dfb009" d="M 340.5,258.5 C 344.866,262.631 344.199,264.131 338.5,263C 339.267,261.53 339.933,260.03 340.5,258.5 Z"/></g>
<g><path style="opacity:1" fill="#242926" d="M 393.5,256.5 C 393.897,255.475 394.563,255.308 395.5,256C 396.542,257.918 397.708,259.751 399,261.5C 400.308,259.359 401.808,257.359 403.5,255.5C 403.833,255.833 404.167,256.167 404.5,256.5C 401.735,260.031 400.068,264.031 399.5,268.5C 398.018,264.202 396.018,260.202 393.5,256.5 Z"/></g>
<g><path style="opacity:1" fill="#2a2d26" d="M 165.5,257.5 C 167.237,260.008 168.07,263.008 168,266.5C 170.267,267.935 172.267,267.602 174,265.5C 175.328,254.833 175.995,254.833 176,265.5C 173.669,269.933 170.502,270.6 166.5,267.5C 165.583,264.242 165.249,260.909 165.5,257.5 Z"/></g>
<g><path style="opacity:1" fill="#2d2f25" d="M 195.5,269.5 C 195.665,266.482 195.498,263.482 195,260.5C 194.283,261.044 193.783,261.711 193.5,262.5C 193.038,264.757 192.038,266.757 190.5,268.5C 188.747,265.995 187.247,263.329 186,260.5C 185.821,263.553 185.321,266.553 184.5,269.5C 183.509,265.555 183.176,261.555 183.5,257.5C 184.552,257.351 185.552,257.517 186.5,258C 187.708,260.25 189.041,262.417 190.5,264.5C 191.934,261.953 193.6,259.619 195.5,257.5C 196.809,261.649 196.809,265.649 195.5,269.5 Z"/></g>
<g><path style="opacity:1" fill="#7d6a15" d="M 195.5,269.5 C 194.833,267.167 194.167,264.833 193.5,262.5C 193.783,261.711 194.283,261.044 195,260.5C 195.498,263.482 195.665,266.482 195.5,269.5 Z"/></g>
<g><path style="opacity:1" fill="#242926" d="M 300.5,255.5 C 307.329,254.828 310.163,257.828 309,264.5C 308.363,266.303 307.197,267.636 305.5,268.5C 306.729,269.281 308.062,269.781 309.5,270C 308.407,271.365 307.074,271.699 305.5,271C 303.127,269.283 300.627,267.783 298,266.5C 295.6,261.99 296.433,258.323 300.5,255.5 Z"/></g>
<g><path style="opacity:1" fill="#f0bc03" d="M 300.5,257.5 C 307.486,257.331 309.153,260.164 305.5,266C 298.416,266.475 296.749,263.642 300.5,257.5 Z"/></g>
<g><path style="opacity:1" fill="#141f27" d="M 77.5,285.5 C 86.5062,285.334 95.5062,285.5 104.5,286C 108.499,286.668 111.332,288.835 113,292.5C 113.667,301.167 113.667,309.833 113,318.5C 111.786,320.049 110.286,321.215 108.5,322C 110.286,322.785 111.786,323.951 113,325.5C 113.667,333.833 113.667,342.167 113,350.5C 111.73,354.77 108.896,357.27 104.5,358C 95.5062,358.5 86.5062,358.666 77.5,358.5C 77.5,334.167 77.5,309.833 77.5,285.5 Z"/></g>
<g><path style="opacity:1" fill="#182127" d="M 137.5,297.5 C 136.51,303.645 136.177,309.978 136.5,316.5C 142.833,316.5 149.167,316.5 155.5,316.5C 155.5,320.167 155.5,323.833 155.5,327.5C 149.167,327.5 142.833,327.5 136.5,327.5C 136.177,334.022 136.51,340.355 137.5,346.5C 145.5,346.5 153.5,346.5 161.5,346.5C 161.793,350.437 161.46,354.27 160.5,358C 148.833,358.667 137.167,358.667 125.5,358C 124.838,346.074 124.505,334.074 124.5,322C 124.505,309.926 124.838,297.926 125.5,286C 137.167,285.333 148.833,285.333 160.5,286C 161.46,289.73 161.793,293.563 161.5,297.5C 153.5,297.5 145.5,297.5 137.5,297.5 Z"/></g>
<g><path style="opacity:1" fill="#142027" d="M 202.5,344.5 C 199.854,343.836 197.021,343.502 194,343.5C 190.748,343.519 187.915,344.186 185.5,345.5C 184.575,349.79 183.909,354.124 183.5,358.5C 179.5,358.5 175.5,358.5 171.5,358.5C 176.372,334.139 181.372,309.806 186.5,285.5C 191.762,285.195 196.928,285.529 202,286.5C 207.172,310.52 212.339,334.52 217.5,358.5C 213.445,358.824 209.445,358.491 205.5,357.5C 204.604,353.115 203.604,348.781 202.5,344.5 Z"/></g>
<g><path style="opacity:1" fill="#162027" d="M 252.5,324.5 C 252.56,325.043 252.893,325.376 253.5,325.5C 254.499,312.517 254.832,299.517 254.5,286.5C 258.233,285.179 262.066,285.179 266,286.5C 266.667,310.167 266.667,333.833 266,357.5C 262.214,358.795 258.38,358.795 254.5,357.5C 250.158,345.472 245.825,333.472 241.5,321.5C 241.013,320.527 240.513,319.527 240,318.5C 239.5,331.496 239.333,344.496 239.5,357.5C 235.702,358.483 231.702,358.817 227.5,358.5C 227.5,334.167 227.5,309.833 227.5,285.5C 231.437,285.207 235.27,285.54 239,286.5C 244.201,298.937 248.701,311.603 252.5,324.5 Z"/></g>
<g><path style="opacity:1" fill="#141f27" d="M 277.5,285.5 C 287.58,285.077 297.58,285.577 307.5,287C 310.381,288.251 312.214,290.417 313,293.5C 313.667,301.5 313.667,309.5 313,317.5C 312.167,319.667 310.667,321.167 308.5,322C 310.286,322.785 311.786,323.951 313,325.5C 313.667,333.833 313.667,342.167 313,350.5C 311.73,354.77 308.896,357.27 304.5,358C 295.506,358.5 286.506,358.666 277.5,358.5C 277.5,334.167 277.5,309.833 277.5,285.5 Z"/></g>
<g><path style="opacity:1" fill="#152027" d="M 339.5,285.5 C 344.5,285.5 349.5,285.5 354.5,285.5C 359.626,309.798 364.626,334.132 369.5,358.5C 365.5,358.5 361.5,358.5 357.5,358.5C 357.119,353.763 356.286,349.096 355,344.5C 349.554,343.194 344.054,343.194 338.5,344.5C 337.393,348.811 336.393,353.144 335.5,357.5C 331.555,358.491 327.555,358.824 323.5,358.5C 328.428,334.056 333.761,309.723 339.5,285.5 Z"/></g>
<g><path style="opacity:1" fill="#1b2327" d="M 387.5,285.5 C 394.508,285.334 401.508,285.5 408.5,286C 413.235,287.068 416.402,289.901 418,294.5C 418.499,299.489 418.666,304.489 418.5,309.5C 414.5,309.5 410.5,309.5 406.5,309.5C 408.653,298.49 404.32,294.657 393.5,298C 392.841,305.924 392.507,313.924 392.5,322C 392.507,330.076 392.841,338.076 393.5,346C 397.167,346.667 400.833,346.667 404.5,346C 405,345.5 405.5,345 406,344.5C 406.499,339.845 406.666,335.179 406.5,330.5C 404.167,330.5 401.833,330.5 399.5,330.5C 399.207,326.563 399.54,322.73 400.5,319C 406.416,318.193 412.25,318.359 418,319.5C 418.667,329.5 418.667,339.5 418,349.5C 416.402,354.099 413.235,356.932 408.5,358C 401.5,358.667 394.5,358.667 387.5,358C 383.942,356.108 381.442,353.275 380,349.5C 379.333,331.167 379.333,312.833 380,294.5C 381.642,290.7 384.142,287.7 387.5,285.5 Z"/></g>
<g><path style="opacity:1" fill="#5f551a" d="M 254.5,286.5 C 254.832,299.517 254.499,312.517 253.5,325.5C 252.893,325.376 252.56,325.043 252.5,324.5C 253.167,311.833 253.833,299.167 254.5,286.5 Z"/></g>
<g><path style="opacity:1" fill="#a98a0f" d="M 90.5,297.5 C 90.5,303.5 90.5,309.5 90.5,315.5C 93.5,315.5 96.5,315.5 99.5,315.5C 96.3752,316.479 93.0419,316.813 89.5,316.5C 89.1765,309.978 89.5098,303.645 90.5,297.5 Z"/></g>
<g><path style="opacity:1" fill="#fcc500" d="M 90.5,297.5 C 94.1064,297.211 97.6064,297.544 101,298.5C 101.667,303.833 101.667,309.167 101,314.5C 100.617,315.056 100.117,315.389 99.5,315.5C 96.5,315.5 93.5,315.5 90.5,315.5C 90.5,309.5 90.5,303.5 90.5,297.5 Z"/></g>
<g><path style="opacity:1" fill="#f6c002" d="M 289.5,297.5 C 293.24,297.241 296.906,297.574 300.5,298.5C 301.663,303.802 301.829,309.136 301,314.5C 300.5,315 300,315.5 299.5,316C 296.183,316.498 292.85,316.665 289.5,316.5C 289.5,310.167 289.5,303.833 289.5,297.5 Z"/></g>
<g><path style="opacity:1" fill="#e8b608" d="M 193.5,302.5 C 194.117,302.611 194.617,302.944 195,303.5C 196.62,313.221 198.453,322.888 200.5,332.5C 196.555,333.491 192.555,333.824 188.5,333.5C 190.037,323.146 191.704,312.813 193.5,302.5 Z"/></g>
<g><path style="opacity:1" fill="#eab807" d="M 346.5,302.5 C 349.237,312.567 351.237,322.9 352.5,333.5C 348.833,333.5 345.167,333.5 341.5,333.5C 342.271,322.987 343.937,312.654 346.5,302.5 Z"/></g>
<g><path style="opacity:1" fill="#806d15" d="M 137.5,297.5 C 137.5,303.5 137.5,309.5 137.5,315.5C 143.69,315.177 149.69,315.51 155.5,316.5C 149.167,316.5 142.833,316.5 136.5,316.5C 136.177,309.978 136.51,303.645 137.5,297.5 Z"/></g>
<g><path style="opacity:1" fill="#c99f08" d="M 241.5,321.5 C 240.833,333.5 240.167,345.5 239.5,357.5C 239.333,344.496 239.5,331.496 240,318.5C 240.513,319.527 241.013,320.527 241.5,321.5 Z"/></g>
<g><path style="opacity:1" fill="#a68711" d="M 99.5,328.5 C 96.5,328.5 93.5,328.5 90.5,328.5C 90.5,334.5 90.5,340.5 90.5,346.5C 89.5098,340.355 89.1765,334.022 89.5,327.5C 93.0419,327.187 96.3752,327.521 99.5,328.5 Z"/></g>
<g><path style="opacity:1" fill="#fdc500" d="M 99.5,328.5 C 100.117,328.611 100.617,328.944 101,329.5C 101.667,334.833 101.667,340.167 101,345.5C 97.6064,346.456 94.1064,346.789 90.5,346.5C 90.5,340.5 90.5,334.5 90.5,328.5C 93.5,328.5 96.5,328.5 99.5,328.5 Z"/></g>
<g><path style="opacity:1" fill="#8b7413" d="M 155.5,327.5 C 149.69,328.49 143.69,328.823 137.5,328.5C 137.5,334.5 137.5,340.5 137.5,346.5C 136.51,340.355 136.177,334.022 136.5,327.5C 142.833,327.5 149.167,327.5 155.5,327.5 Z"/></g>
<g><path style="opacity:1" fill="#f6c003" d="M 289.5,327.5 C 292.85,327.335 296.183,327.502 299.5,328C 300,328.5 300.5,329 301,329.5C 301.667,334.5 301.667,339.5 301,344.5C 300.5,345 300,345.5 299.5,346C 296.183,346.498 292.85,346.665 289.5,346.5C 289.5,340.167 289.5,333.833 289.5,327.5 Z"/></g>
<g><path style="opacity:1" fill="#9e8210" d="M 202.5,344.5 C 196.741,344.214 191.075,344.548 185.5,345.5C 187.915,344.186 190.748,343.519 194,343.5C 197.021,343.502 199.854,343.836 202.5,344.5 Z"/></g>
<g><path style="opacity:1" fill="#ea354e" d="M 72.5,372.5 C 190.5,372.5 308.5,372.5 426.5,372.5C 426.5,388.167 426.5,403.833 426.5,419.5C 308.5,419.5 190.5,419.5 72.5,419.5C 72.5,403.833 72.5,388.167 72.5,372.5 Z"/></g>
<g><path style="opacity:1" fill="#f59ba8" d="M 140.5,387.5 C 137.167,387.5 133.833,387.5 130.5,387.5C 130.5,393.833 130.5,400.167 130.5,406.5C 129.509,400.021 129.176,393.354 129.5,386.5C 133.371,386.185 137.038,386.518 140.5,387.5 Z"/></g>
<g><path style="opacity:1" fill="#fef9fa" d="M 140.5,387.5 C 146.828,388.653 147.828,391.486 143.5,396C 147.5,399.333 147.5,402.667 143.5,406C 139.179,406.499 134.846,406.666 130.5,406.5C 130.5,400.167 130.5,393.833 130.5,387.5C 133.833,387.5 137.167,387.5 140.5,387.5 Z"/></g>
<g><path style="opacity:1" fill="#fefdfd" d="M 175.5,398.5 C 172.5,398.5 169.5,398.5 166.5,398.5C 166.5,399.833 166.5,401.167 166.5,402.5C 170.167,402.5 173.833,402.5 177.5,402.5C 177.5,403.833 177.5,405.167 177.5,406.5C 172.5,406.5 167.5,406.5 162.5,406.5C 162.5,400.167 162.5,393.833 162.5,387.5C 167.167,387.5 171.833,387.5 176.5,387.5C 176.5,388.5 176.5,389.5 176.5,390.5C 173.167,390.5 169.833,390.5 166.5,390.5C 166.5,392.167 166.5,393.833 166.5,395.5C 169.5,395.5 172.5,395.5 175.5,395.5C 175.5,396.5 175.5,397.5 175.5,398.5 Z"/></g>
<g><path style="opacity:1" fill="#fef7f8" d="M 204.5,397.5 C 204.56,398.043 204.893,398.376 205.5,398.5C 206.489,394.893 206.823,391.226 206.5,387.5C 207.833,387.5 209.167,387.5 210.5,387.5C 210.5,393.833 210.5,400.167 210.5,406.5C 208.712,406.785 207.045,406.452 205.5,405.5C 203.192,402.025 200.692,398.692 198,395.5C 197.501,399.152 197.335,402.818 197.5,406.5C 195.833,406.5 194.167,406.5 192.5,406.5C 192.5,400.167 192.5,393.833 192.5,387.5C 194.199,387.34 195.866,387.506 197.5,388C 200.051,391.044 202.384,394.211 204.5,397.5 Z"/></g>
<g><path style="opacity:1" fill="#f49ca8" d="M 206.5,387.5 C 206.823,391.226 206.489,394.893 205.5,398.5C 204.893,398.376 204.56,398.043 204.5,397.5C 205.167,394.167 205.833,390.833 206.5,387.5 Z"/></g>
<g><path style="opacity:1" fill="#fef6f7" d="M 231.5,387.5 C 234.518,387.335 237.518,387.502 240.5,388C 244.132,389.373 244.299,390.873 241,392.5C 233.784,389.754 230.45,392.087 231,399.5C 232.864,402.207 235.364,403.041 238.5,402C 239.406,400.301 239.739,398.467 239.5,396.5C 240.833,396.5 242.167,396.5 243.5,396.5C 245.539,403.712 242.872,407.046 235.5,406.5C 226.616,405.052 223.782,400.052 227,391.5C 228.397,389.93 229.897,388.596 231.5,387.5 Z"/></g>
<g><path style="opacity:1" fill="#fef8f9" d="M 259.5,387.5 C 261.167,387.5 262.833,387.5 264.5,387.5C 264.337,389.857 264.503,392.19 265,394.5C 267.167,392.333 269.333,390.167 271.5,388C 273.167,387.333 274.833,387.333 276.5,388C 274.69,390.644 272.69,393.144 270.5,395.5C 272.957,398.914 275.291,402.414 277.5,406C 275.421,406.808 273.421,406.641 271.5,405.5C 267.479,397.284 265.145,397.617 264.5,406.5C 262.833,406.5 261.167,406.5 259.5,406.5C 259.5,400.167 259.5,393.833 259.5,387.5 Z"/></g>
<g><path style="opacity:1" fill="#f6a7b2" d="M 296.5,387.5 C 295.167,387.5 293.833,387.5 292.5,387.5C 292.5,391.833 292.5,396.167 292.5,400.5C 291.514,396.03 291.181,391.363 291.5,386.5C 293.415,386.216 295.081,386.549 296.5,387.5 Z"/></g>
<g><path style="opacity:1" fill="#fef8f9" d="M 296.5,387.5 C 296.334,391.846 296.501,396.179 297,400.5C 299.333,403.167 301.667,403.167 304,400.5C 304.499,396.179 304.666,391.846 304.5,387.5C 306.167,387.5 307.833,387.5 309.5,387.5C 309.666,392.179 309.499,396.845 309,401.5C 306.103,406.155 301.937,407.655 296.5,406C 294.072,404.982 292.738,403.148 292.5,400.5C 292.5,396.167 292.5,391.833 292.5,387.5C 293.833,387.5 295.167,387.5 296.5,387.5 Z"/></g>
<g><path style="opacity:1" fill="#fefcfc" d="M 325.5,387.5 C 327.167,387.5 328.833,387.5 330.5,387.5C 330.5,392.5 330.5,397.5 330.5,402.5C 333.167,402.5 335.833,402.5 338.5,402.5C 338.5,403.833 338.5,405.167 338.5,406.5C 334.167,406.5 329.833,406.5 325.5,406.5C 325.5,400.167 325.5,393.833 325.5,387.5 Z"/></g>
<g><path style="opacity:1" fill="#fef8f9" d="M 352.5,387.5 C 354.167,387.5 355.833,387.5 357.5,387.5C 357.334,391.846 357.501,396.179 358,400.5C 360.333,403.167 362.667,403.167 365,400.5C 365.499,396.179 365.666,391.846 365.5,387.5C 367.167,387.5 368.833,387.5 370.5,387.5C 370.839,392.93 370.339,398.264 369,403.5C 364,407.5 359,407.5 354,403.5C 352.661,398.264 352.161,392.93 352.5,387.5 Z"/></g>
<g><path style="opacity:1" fill="#f59ca8" d="M 175.5,398.5 C 175.5,397.5 175.5,396.5 175.5,395.5C 172.5,395.5 169.5,395.5 166.5,395.5C 166.5,393.833 166.5,392.167 166.5,390.5C 169.833,390.5 173.167,390.5 176.5,390.5C 176.5,389.5 176.5,388.5 176.5,387.5C 171.833,387.5 167.167,387.5 162.5,387.5C 162.5,393.833 162.5,400.167 162.5,406.5C 161.509,400.021 161.176,393.354 161.5,386.5C 166.833,386.5 172.167,386.5 177.5,386.5C 177.5,388.167 177.5,389.833 177.5,391.5C 174.167,391.5 170.833,391.5 167.5,391.5C 167.5,392.5 167.5,393.5 167.5,394.5C 170.5,394.5 173.5,394.5 176.5,394.5C 176.768,396.099 176.434,397.432 175.5,398.5 Z"/></g>
<g><path style="opacity:1" fill="#f05e6c" d="M 134.5,390.5 C 136.527,390.338 138.527,390.505 140.5,391C 141.727,392.587 141.394,393.921 139.5,395C 137.866,395.494 136.199,395.66 134.5,395.5C 134.5,393.833 134.5,392.167 134.5,390.5 Z"/></g>
<g><path style="opacity:1" fill="#ec4458" d="M 134.5,398.5 C 136.527,398.338 138.527,398.505 140.5,399C 141.337,400.011 141.67,401.178 141.5,402.5C 139.167,402.5 136.833,402.5 134.5,402.5C 134.5,401.167 134.5,399.833 134.5,398.5 Z"/></g>
</svg>
