<?xml version="1.0" encoding="UTF-8"?>
<!DOCTYPE svg PUBLIC "-//W3C//DTD SVG 1.1//EN" "http://www.w3.org/Graphics/SVG/1.1/DTD/svg11.dtd">
<svg xmlns="http://www.w3.org/2000/svg" version="1.1" width="2560px" height="1383px" style="shape-rendering:geometricPrecision; text-rendering:geometricPrecision; image-rendering:optimizeQuality; fill-rule:evenodd; clip-rule:evenodd" xmlns:xlink="http://www.w3.org/1999/xlink">
<g><path style="opacity:0.995" fill="#adb1d4" d="M 1223.5,35.5 C 1223.2,36.1499 1222.86,36.8165 1222.5,37.5C 1230.18,52.3876 1237.18,67.5542 1243.5,83C 1242.58,83.2784 1241.92,83.7784 1241.5,84.5C 1050.06,86.3857 862.398,113.552 678.5,166C 563.172,199.204 454.172,246.538 351.5,308C 325.126,324.884 299.459,342.718 274.5,361.5C 270.766,344.631 267.766,327.631 265.5,310.5C 336.25,259.267 412.25,216.433 493.5,182C 636.257,122.642 784.257,81.9758 937.5,60C 1032.35,46.1503 1127.68,37.9837 1223.5,35.5 Z"/></g>
<g><path style="opacity:0.993" fill="#a9add1" d="M 1223.5,35.5 C 1246.5,35.5 1269.5,35.5 1292.5,35.5C 1299.24,51.1537 1305.58,66.987 1311.5,83C 1289,83.168 1266.66,83.668 1244.5,84.5C 1243.5,84.5 1242.5,84.5 1241.5,84.5C 1241.92,83.7784 1242.58,83.2784 1243.5,83C 1237.18,67.5542 1230.18,52.3876 1222.5,37.5C 1222.86,36.8165 1223.2,36.1499 1223.5,35.5 Z"/></g>
<g><path style="opacity:0.994" fill="#a1a5cb" d="M 1292.5,35.5 C 1305.83,35.5 1319.17,35.5 1332.5,35.5C 1335.03,36.1657 1337.69,36.8324 1340.5,37.5C 1346.66,52.8249 1352.33,68.3249 1357.5,84C 1351.51,84.4995 1345.51,84.6662 1339.5,84.5C 1307.83,84.5 1276.17,84.5 1244.5,84.5C 1266.66,83.668 1289,83.168 1311.5,83C 1305.58,66.987 1299.24,51.1537 1292.5,35.5 Z"/></g>
<g><path style="opacity:0.994" fill="#999dc6" d="M 1332.5,35.5 C 1358.51,36.2337 1384.51,37.2337 1410.5,38.5C 1416.44,54.9818 1421.77,71.6484 1426.5,88.5C 1397.33,87.4104 1368.33,86.077 1339.5,84.5C 1345.51,84.6662 1351.51,84.4995 1357.5,84C 1352.33,68.3249 1346.66,52.8249 1340.5,37.5C 1337.69,36.8324 1335.03,36.1657 1332.5,35.5 Z"/></g>
<g><path style="opacity:0.993" fill="#9195bf" d="M 1410.5,38.5 C 1436.57,39.9331 1462.57,41.9331 1488.5,44.5C 1493.79,60.9727 1498.45,77.6393 1502.5,94.5C 1477.14,92.5934 1451.81,90.5934 1426.5,88.5C 1421.77,71.6484 1416.44,54.9818 1410.5,38.5 Z"/></g>
<g><path style="opacity:0.993" fill="#888cb8" d="M 1488.5,44.5 C 1504.18,45.7131 1519.84,47.0464 1535.5,48.5C 1540.13,65.0105 1544.13,81.6771 1547.5,98.5C 1546.17,98.5 1544.83,98.5 1543.5,98.5C 1529.82,97.2683 1516.15,95.9349 1502.5,94.5C 1498.45,77.6393 1493.79,60.9727 1488.5,44.5 Z"/></g>
<g><path style="opacity:0.993" fill="#8185b3" d="M 1535.5,48.5 C 1558.79,51.4949 1582.12,54.4949 1605.5,57.5C 1609.22,74.0891 1612.55,90.7558 1615.5,107.5C 1614.5,107.5 1613.5,107.5 1612.5,107.5C 1589.35,104.572 1566.35,101.572 1543.5,98.5C 1544.83,98.5 1546.17,98.5 1547.5,98.5C 1544.13,81.6771 1540.13,65.0105 1535.5,48.5 Z"/></g>
<g><path style="opacity:0.996" fill="#797dad" d="M 1605.5,57.5 C 1620.83,59.833 1636.16,62.1663 1651.5,64.5C 1655.09,81.4487 1658.42,98.4487 1661.5,115.5C 1645.31,112.929 1628.98,110.262 1612.5,107.5C 1613.5,107.5 1614.5,107.5 1615.5,107.5C 1612.55,90.7558 1609.22,74.0891 1605.5,57.5 Z"/></g>
<g><path style="opacity:0.994" fill="#7276a8" d="M 1651.5,64.5 C 1677.18,69.0576 1702.85,73.7243 1728.5,78.5C 1731.49,95.4478 1734.16,112.448 1736.5,129.5C 1711.49,124.832 1686.49,120.166 1661.5,115.5C 1658.42,98.4487 1655.09,81.4487 1651.5,64.5 Z"/></g>
<g><path style="opacity:0.994" fill="#696da1" d="M 1728.5,78.5 C 1744.34,81.799 1760.01,85.4657 1775.5,89.5C 1774.88,89.9169 1774.54,90.5836 1774.5,91.5C 1777.25,106.265 1779.59,121.098 1781.5,136C 1781.76,137.787 1782.43,139.287 1783.5,140.5C 1767.85,136.67 1752.18,133.004 1736.5,129.5C 1734.16,112.448 1731.49,95.4478 1728.5,78.5 Z"/></g>
<g><path style="opacity:1" fill="#777bb3" d="M 1241.5,84.5 C 1242.5,84.5 1243.5,84.5 1244.5,84.5C 1276.17,84.5 1307.83,84.5 1339.5,84.5C 1368.33,86.077 1397.33,87.4104 1426.5,88.5C 1451.81,90.5934 1477.14,92.5934 1502.5,94.5C 1516.15,95.9349 1529.82,97.2683 1543.5,98.5C 1566.35,101.572 1589.35,104.572 1612.5,107.5C 1628.98,110.262 1645.31,112.929 1661.5,115.5C 1686.49,120.166 1711.49,124.832 1736.5,129.5C 1752.18,133.004 1767.85,136.67 1783.5,140.5C 1805.96,145.633 1828.3,151.3 1850.5,157.5C 1874.94,164.423 1899.27,171.756 1923.5,179.5C 1945.91,186.969 1968.24,194.636 1990.5,202.5C 2080.03,235.628 2164.36,278.461 2243.5,331C 2289.89,363.036 2332.39,399.87 2371,441.5C 2403.7,478.245 2430.04,519.245 2450,564.5C 2488.77,662.727 2483.1,758.394 2433,851.5C 2404.81,901.28 2369.31,945.447 2326.5,984C 2266.54,1036.5 2200.87,1080.84 2129.5,1117C 2016.81,1172.56 1899.15,1214.23 1776.5,1242C 1659.26,1268.43 1540.59,1285.27 1420.5,1292.5C 1383.85,1294.27 1347.18,1295.6 1310.5,1296.5C 1264.82,1296.77 1219.15,1296.1 1173.5,1294.5C 1150.53,1292.76 1127.53,1291.43 1104.5,1290.5C 1060.25,1286.44 1015.92,1281.77 971.5,1276.5C 911.884,1267.56 852.551,1256.9 793.5,1244.5C 711.883,1225.96 631.883,1201.96 553.5,1172.5C 508.682,1154.23 464.682,1134.23 421.5,1112.5C 349.461,1075.32 283.461,1029.48 223.5,975C 201.176,953.517 180.509,930.684 161.5,906.5C 137.778,874.067 118.445,839.067 103.5,801.5C 93.5508,771.416 87.2175,740.749 84.5,709.5C 82.1127,668.392 87.446,628.392 100.5,589.5C 106.516,570.801 114.183,552.801 123.5,535.5C 132.161,518.835 141.828,502.835 152.5,487.5C 164.099,471.327 176.432,455.661 189.5,440.5C 201.139,428.527 212.806,416.527 224.5,404.5C 241.192,390.137 257.859,375.804 274.5,361.5C 299.459,342.718 325.126,324.884 351.5,308C 454.172,246.538 563.172,199.204 678.5,166C 862.398,113.552 1050.06,86.3857 1241.5,84.5 Z"/></g>
<g><path style="opacity:0.994" fill="#61659c" d="M 1775.5,89.5 C 1798.87,94.0931 1821.87,99.7598 1844.5,106.5C 1843.85,107.449 1843.51,108.615 1843.5,110C 1845.39,125.988 1847.73,141.822 1850.5,157.5C 1828.3,151.3 1805.96,145.633 1783.5,140.5C 1782.43,139.287 1781.76,137.787 1781.5,136C 1779.59,121.098 1777.25,106.265 1774.5,91.5C 1774.54,90.5836 1774.88,89.9169 1775.5,89.5 Z"/></g>
<g><path style="opacity:0.994" fill="#575b94" d="M 1844.5,106.5 C 1869.39,112.686 1894.06,119.686 1918.5,127.5C 1920.96,144.738 1922.62,162.071 1923.5,179.5C 1899.27,171.756 1874.94,164.423 1850.5,157.5C 1847.73,141.822 1845.39,125.988 1843.5,110C 1843.51,108.615 1843.85,107.449 1844.5,106.5 Z"/></g>
<g><path style="opacity:0.996" fill="#4f538e" d="M 1918.5,127.5 C 1941.86,134.73 1964.86,142.73 1987.5,151.5C 1986.9,151.735 1986.57,152.235 1986.5,153C 1988.42,169.444 1989.75,185.944 1990.5,202.5C 1968.24,194.636 1945.91,186.969 1923.5,179.5C 1922.62,162.071 1920.96,144.738 1918.5,127.5 Z"/></g>
<g><path style="opacity:0.995" fill="#484c89" d="M 1987.5,151.5 C 2106.39,192.762 2215.72,250.929 2315.5,326C 2366.86,366.359 2411.69,412.859 2450,465.5C 2482.37,511.245 2504.7,561.578 2517,616.5C 2534.76,709.283 2520.09,796.616 2473,878.5C 2441.28,931.246 2402.45,978.412 2356.5,1020C 2286.68,1080.28 2210.01,1130.61 2126.5,1171C 1992.76,1234.02 1853.1,1279.02 1707.5,1306C 1582.61,1329.72 1456.61,1342.56 1329.5,1344.5C 1360.65,1328.43 1390.98,1311.1 1420.5,1292.5C 1540.59,1285.27 1659.26,1268.43 1776.5,1242C 1899.15,1214.23 2016.81,1172.56 2129.5,1117C 2200.87,1080.84 2266.54,1036.5 2326.5,984C 2369.31,945.447 2404.81,901.28 2433,851.5C 2483.1,758.394 2488.77,662.727 2450,564.5C 2430.04,519.245 2403.7,478.245 2371,441.5C 2332.39,399.87 2289.89,363.036 2243.5,331C 2164.36,278.461 2080.03,235.628 1990.5,202.5C 1989.75,185.944 1988.42,169.444 1986.5,153C 1986.57,152.235 1986.9,151.735 1987.5,151.5 Z"/></g>
<g><path style="opacity:1" fill="#fdfdfd" d="M 1156.5,199.5 C 1208.17,199.333 1259.83,199.5 1311.5,200C 1326.73,204.944 1333.56,215.444 1332,231.5C 1322.25,278.728 1313.09,326.061 1304.5,373.5C 1342.83,373.333 1381.17,373.5 1419.5,374C 1451.36,374.683 1482.69,379.016 1513.5,387C 1541.54,394.767 1566.04,408.6 1587,428.5C 1608.3,452.712 1619.63,481.045 1621,513.5C 1628.67,473.833 1636.33,434.167 1644,394.5C 1647.6,383.895 1654.77,377.062 1665.5,374C 1765.5,373.333 1865.5,373.333 1965.5,374C 2008.58,375.031 2049.58,384.698 2088.5,403C 2150.85,436.456 2185.68,488.622 2193,559.5C 2197.55,631.829 2181.55,699.163 2145,761.5C 2083.84,855.852 1996.67,904.685 1883.5,908C 1836.18,909.384 1788.85,909.884 1741.5,909.5C 1731.95,963.019 1721.45,1016.35 1710,1069.5C 1706.19,1076 1700.69,1080.5 1693.5,1083C 1640.83,1083.67 1588.17,1083.67 1535.5,1083C 1519.9,1076.69 1513.73,1065.19 1517,1048.5C 1526.78,1000.92 1535.78,953.254 1544,905.5C 1541.35,907.053 1538.51,908.22 1535.5,909C 1483.5,909.667 1431.5,909.667 1379.5,909C 1363.25,902.671 1356.75,890.838 1360,873.5C 1379.89,772.939 1399.22,672.272 1418,571.5C 1418.91,562.756 1418.58,554.089 1417,545.5C 1413.92,541.369 1409.75,538.869 1404.5,538C 1396.32,535.693 1387.99,534.36 1379.5,534C 1343.83,533.5 1308.17,533.333 1272.5,533.5C 1250.45,650.569 1227.95,767.569 1205,884.5C 1202.91,898.254 1195.08,906.421 1181.5,909C 1130.83,909.667 1080.17,909.667 1029.5,909C 1013.25,902.684 1006.75,890.851 1010,873.5C 1017.9,834.869 1025.23,796.203 1032,757.5C 973.008,851.943 887.508,902.11 775.5,908C 725.844,909.346 676.177,909.846 626.5,909.5C 616.476,960.786 606.643,1012.12 597,1063.5C 593.925,1072.91 587.759,1079.41 578.5,1083C 525.833,1083.67 473.167,1083.67 420.5,1083C 406.013,1077.54 399.513,1067.04 401,1051.5C 443.667,832.164 486.334,612.831 529,393.5C 532.239,383.262 539.072,376.762 549.5,374C 649.167,373.333 748.833,373.333 848.5,374C 898.036,374.633 944.369,386.966 987.5,411C 1035.13,441.044 1064.3,483.878 1075,539.5C 1095.54,433.14 1116.21,326.807 1137,220.5C 1139.92,210.08 1146.42,203.08 1156.5,199.5 Z"/></g>
<g><path style="opacity:1" fill="#cacaca" d="M 1163.5,226.5 C 1210.66,225.501 1258,225.168 1305.5,225.5C 1305.78,227.415 1305.45,229.081 1304.5,230.5C 1304.5,229.167 1304.5,227.833 1304.5,226.5C 1257.5,226.5 1210.5,226.5 1163.5,226.5 Z"/></g>
<g><path style="opacity:1" fill="#000000" d="M 1163.5,226.5 C 1210.5,226.5 1257.5,226.5 1304.5,226.5C 1304.5,227.833 1304.5,229.167 1304.5,230.5C 1293.25,287.087 1282.25,343.753 1271.5,400.5C 1321.17,400.333 1370.83,400.5 1420.5,401C 1454.62,402.112 1487.96,407.779 1520.5,418C 1571.44,437 1596.11,473.834 1594.5,528.5C 1594.48,536.865 1593.98,545.198 1593,553.5C 1572.1,663.168 1551.27,772.835 1530.5,882.5C 1482.5,882.5 1434.5,882.5 1386.5,882.5C 1405.6,782.5 1424.77,682.5 1444,582.5C 1446.31,567.412 1445.97,552.412 1443,537.5C 1436.75,522.606 1425.58,513.772 1409.5,511C 1404.17,510 1398.83,509 1393.5,508C 1345.86,506.55 1298.19,506.05 1250.5,506.5C 1226.29,631.534 1201.96,756.534 1177.5,881.5C 1130.5,882.5 1083.5,882.833 1036.5,882.5C 1078.51,663.778 1120.85,445.111 1163.5,226.5 Z"/></g>
<g><path style="opacity:0.994" fill="#a6aacf" d="M 265.5,310.5 C 267.766,327.631 270.766,344.631 274.5,361.5C 257.859,375.804 241.192,390.137 224.5,404.5C 219.989,387.607 215.989,370.607 212.5,353.5C 229.273,338.06 246.939,323.727 265.5,310.5 Z"/></g>
<g><path style="opacity:0.994" fill="#9fa3ca" d="M 212.5,353.5 C 215.989,370.607 219.989,387.607 224.5,404.5C 212.806,416.527 201.139,428.527 189.5,440.5C 184.079,423.827 179.412,406.827 175.5,389.5C 174.378,390.63 173.044,391.297 171.5,391.5C 180.705,381.558 190.372,372.058 200.5,363C 204.394,359.596 208.394,356.429 212.5,353.5 Z"/></g>
<g><path style="opacity:1" fill="#000000" d="M 571.5,1053.5 C 570.596,1054.21 570.263,1055.21 570.5,1056.5C 522.822,1057.16 475.488,1056.5 428.5,1054.5C 470.518,836.577 512.851,618.744 555.5,401C 652.833,400.333 750.167,400.333 847.5,401C 880.078,402.373 911.745,408.373 942.5,419C 1014.36,449.481 1050.69,503.981 1051.5,582.5C 1050.97,687.463 1008.97,770.963 925.5,833C 888.55,857.655 847.883,872.655 803.5,878C 785.218,879.997 766.885,881.33 748.5,882C 700.5,882.333 652.5,882.667 604.5,883C 593.057,939.717 582.057,996.55 571.5,1053.5 Z"/></g>
<g><path style="opacity:1" fill="#000000" d="M 1670.5,400.5 C 1767.5,400.333 1864.5,400.5 1961.5,401C 1998.27,401.693 2033.6,409.027 2067.5,423C 2123.66,449.176 2156.16,493.009 2165,554.5C 2171.1,624.774 2156.1,690.107 2120,750.5C 2059.57,840.304 1974.74,884.137 1865.5,882C 1816.83,882.5 1768.17,882.667 1719.5,882.5C 1708.13,940.437 1697.13,998.437 1686.5,1056.5C 1638.83,1056.5 1591.17,1056.5 1543.5,1056.5C 1585.83,837.824 1628.17,619.157 1670.5,400.5 Z"/></g>
<g><path style="opacity:0.993" fill="#989cc4" d="M 189.5,440.5 C 176.432,455.661 164.099,471.327 152.5,487.5C 149.679,484.525 147.845,480.858 147,476.5C 142.363,462.283 138.197,447.95 134.5,433.5C 146.118,418.881 158.451,404.881 171.5,391.5C 173.044,391.297 174.378,390.63 175.5,389.5C 179.412,406.827 184.079,423.827 189.5,440.5 Z"/></g>
<g><path style="opacity:0.993" fill="#9296c0" d="M 134.5,433.5 C 138.197,447.95 142.363,462.283 147,476.5C 147.845,480.858 149.679,484.525 152.5,487.5C 141.828,502.835 132.161,518.835 123.5,535.5C 114.939,516.824 107.939,497.49 102.5,477.5C 112.013,461.988 122.68,447.321 134.5,433.5 Z"/></g>
<g><path style="opacity:0.993" fill="#8c90bc" d="M 102.5,477.5 C 107.939,497.49 114.939,516.824 123.5,535.5C 114.183,552.801 106.516,570.801 100.5,589.5C 90.4085,570.761 81.7419,551.261 74.5,531C 74.1639,529.97 73.4972,529.47 72.5,529.5C 80.9993,511.151 90.9993,493.817 102.5,477.5 Z"/></g>
<g><path style="opacity:1" fill="#fcfcfd" d="M 724.5,778.5 C 691.5,778.5 658.5,778.5 625.5,778.5C 625.5,777.5 625.5,776.5 625.5,775.5C 642.576,685.12 659.909,594.787 677.5,504.5C 722.515,504.096 767.515,504.596 812.5,506C 831.827,507.495 850.16,512.495 867.5,521C 886.752,532.302 897.918,549.135 901,571.5C 904.785,623.248 893.785,671.581 868,716.5C 844.641,749.282 812.807,768.449 772.5,774C 756.634,776.847 740.634,778.347 724.5,778.5 Z"/></g>
<g><path style="opacity:1" fill="#fdfdfd" d="M 1839.5,778.5 C 1806.33,778.832 1773.33,778.498 1740.5,777.5C 1757.83,686.5 1775.17,595.5 1792.5,504.5C 1832.17,504.333 1871.83,504.5 1911.5,505C 1933.98,505.357 1955.65,509.691 1976.5,518C 1998.7,528.202 2011.86,545.369 2016,569.5C 2020.54,622.871 2009.2,672.537 1982,718.5C 1966,741.158 1944.83,756.991 1918.5,766C 1892.8,774.171 1866.47,778.337 1839.5,778.5 Z"/></g>
<g><path style="opacity:1" fill="#777bb3" d="M 699.5,531.5 C 736.516,531.129 773.516,531.629 810.5,533C 826.703,534.29 842.036,538.624 856.5,546C 866.229,552.611 872.063,561.778 874,573.5C 876.819,616.404 868.486,657.071 849,695.5C 833.119,722.022 809.952,738.522 779.5,745C 769.575,747.099 759.575,748.765 749.5,750C 718.858,751.418 688.192,751.918 657.5,751.5C 671.629,678.189 685.629,604.856 699.5,531.5 Z"/></g>
<g><path style="opacity:1" fill="#777bb3" d="M 1838.5,751.5 C 1816.47,752.156 1794.81,751.489 1773.5,749.5C 1787.02,677.072 1801.02,604.739 1815.5,532.5C 1847.83,531.333 1880.16,531.167 1912.5,532C 1929.22,532.96 1945.55,535.96 1961.5,541C 1978.45,547.287 1987.95,559.453 1990,577.5C 1991.86,618.695 1983.52,657.695 1965,694.5C 1949.16,721.699 1925.66,738.532 1894.5,745C 1876.03,748.886 1857.36,751.052 1838.5,751.5 Z"/></g>
<g><path style="opacity:0.995" fill="#8387b5" d="M 72.5,529.5 C 73.4972,529.47 74.1639,529.97 74.5,531C 81.7419,551.261 90.4085,570.761 100.5,589.5C 87.446,628.392 82.1127,668.392 84.5,709.5C 68.2076,686.345 53.7076,661.345 41,634.5C 40.6174,635.056 40.1174,635.389 39.5,635.5C 45.2767,598.505 56.2767,563.172 72.5,529.5 Z"/></g>
<g><path style="opacity:0.998" fill="#7c80b0" d="M 84.5,709.5 C 87.2175,740.749 93.5508,771.416 103.5,801.5C 93.4808,789.637 83.9808,777.304 75,764.5C 61.5611,744.606 48.3945,724.606 35.5,704.5C 34.6248,681.338 35.9581,658.338 39.5,635.5C 40.1174,635.389 40.6174,635.056 41,634.5C 53.7076,661.345 68.2076,686.345 84.5,709.5 Z"/></g>
<g><path style="opacity:0.995" fill="#787cac" d="M 35.5,704.5 C 48.3945,724.606 61.5611,744.606 75,764.5C 83.9808,777.304 93.4808,789.637 103.5,801.5C 118.445,839.067 137.778,874.067 161.5,906.5C 117.629,864.657 78.6287,818.99 44.5,769.5C 38.9978,748.314 35.9978,726.647 35.5,704.5 Z"/></g>
<g><path style="opacity:1" fill="#c9cae1" d="M 1773.5,749.5 C 1794.81,751.489 1816.47,752.156 1838.5,751.5C 1816.67,752.497 1794.67,752.831 1772.5,752.5C 1772.26,751.209 1772.6,750.209 1773.5,749.5 Z"/></g>
<g><path style="opacity:0.997" fill="#7478a9" d="M 44.5,769.5 C 78.6287,818.99 117.629,864.657 161.5,906.5C 180.509,930.684 201.176,953.517 223.5,975C 283.461,1029.48 349.461,1075.32 421.5,1112.5C 301.761,1061.72 197.261,989.05 108,894.5C 98.3012,883.306 88.4678,872.306 78.5,861.5C 62.6377,832.588 51.3044,801.921 44.5,769.5 Z"/></g>
<g><path style="opacity:1" fill="#737373" d="M 625.5,775.5 C 625.5,776.5 625.5,777.5 625.5,778.5C 658.5,778.5 691.5,778.5 724.5,778.5C 691.338,779.498 658.004,779.832 624.5,779.5C 624.232,777.901 624.566,776.568 625.5,775.5 Z"/></g>
<g><path style="opacity:1" fill="#727272" d="M 1740.5,777.5 C 1773.33,778.498 1806.33,778.832 1839.5,778.5C 1806.33,779.83 1773,779.83 1739.5,778.5C 1739.62,777.893 1739.96,777.56 1740.5,777.5 Z"/></g>
<g><path style="opacity:0.997" fill="#7175a7" d="M 78.5,861.5 C 88.4678,872.306 98.3012,883.306 108,894.5C 197.261,989.05 301.761,1061.72 421.5,1112.5C 464.682,1134.23 508.682,1154.23 553.5,1172.5C 387.824,1129.95 244.324,1049.28 123,930.5C 122.601,930.728 122.435,931.062 122.5,931.5C 105.335,909.86 90.6688,886.527 78.5,861.5 Z"/></g>
<g><path style="opacity:0.992" fill="#6d71a5" d="M 553.5,1172.5 C 631.883,1201.96 711.883,1225.96 793.5,1244.5C 703.281,1245.14 614.615,1233.81 527.5,1210.5C 526.893,1210.62 526.56,1210.96 526.5,1211.5C 417.488,1170.02 317.821,1113.19 227.5,1041C 188.144,1008.48 153.144,971.982 122.5,931.5C 122.435,931.062 122.601,930.728 123,930.5C 244.324,1049.28 387.824,1129.95 553.5,1172.5 Z"/></g>
<g><path style="opacity:1" fill="#999999" d="M 571.5,1053.5 C 571.5,1054.83 571.5,1056.17 571.5,1057.5C 523.5,1057.5 475.5,1057.5 427.5,1057.5C 427.263,1056.21 427.596,1055.21 428.5,1054.5C 475.488,1056.5 522.822,1057.16 570.5,1056.5C 570.263,1055.21 570.596,1054.21 571.5,1053.5 Z"/></g>
<g><path style="opacity:0.993" fill="#676ba0" d="M 793.5,1244.5 C 852.551,1256.9 911.884,1267.56 971.5,1276.5C 950.462,1280.95 929.128,1284.45 907.5,1287C 871.773,1291.04 836.106,1293.88 800.5,1295.5C 706.679,1275.22 615.346,1247.22 526.5,1211.5C 526.56,1210.96 526.893,1210.62 527.5,1210.5C 614.615,1233.81 703.281,1245.14 793.5,1244.5 Z"/></g>
<g><path style="opacity:0.994" fill="#60649b" d="M 971.5,1276.5 C 1015.92,1281.77 1060.25,1286.44 1104.5,1290.5C 1101.48,1290.34 1098.48,1290.5 1095.5,1291C 1050.72,1304.7 1005.38,1315.53 959.5,1323.5C 906.133,1316.22 853.133,1306.88 800.5,1295.5C 836.106,1293.88 871.773,1291.04 907.5,1287C 929.128,1284.45 950.462,1280.95 971.5,1276.5 Z"/></g>
<g><path style="opacity:0.993" fill="#5b5f97" d="M 1104.5,1290.5 C 1127.53,1291.43 1150.53,1292.76 1173.5,1294.5C 1135.36,1309.29 1096.36,1321.79 1056.5,1332C 1054.68,1332.2 1053.35,1333.03 1052.5,1334.5C 1021.41,1331.57 990.406,1327.9 959.5,1323.5C 1005.38,1315.53 1050.72,1304.7 1095.5,1291C 1098.48,1290.5 1101.48,1290.34 1104.5,1290.5 Z"/></g>
<g><path style="opacity:0.993" fill="#555993" d="M 1173.5,1294.5 C 1219.15,1296.1 1264.82,1296.77 1310.5,1296.5C 1278.55,1313.81 1245.55,1328.97 1211.5,1342C 1210.06,1342.38 1209.06,1343.21 1208.5,1344.5C 1156.38,1342.85 1104.38,1339.51 1052.5,1334.5C 1053.35,1333.03 1054.68,1332.2 1056.5,1332C 1096.36,1321.79 1135.36,1309.29 1173.5,1294.5 Z"/></g>
<g><path style="opacity:0.993" fill="#4e528d" d="M 1420.5,1292.5 C 1390.98,1311.1 1360.65,1328.43 1329.5,1344.5C 1289.19,1345.68 1248.86,1345.68 1208.5,1344.5C 1209.06,1343.21 1210.06,1342.38 1211.5,1342C 1245.55,1328.97 1278.55,1313.81 1310.5,1296.5C 1347.18,1295.6 1383.85,1294.27 1420.5,1292.5 Z"/></g>
</svg>
