<?xml version="1.0" encoding="UTF-8"?>
<!DOCTYPE svg PUBLIC "-//W3C//DTD SVG 1.1//EN" "http://www.w3.org/Graphics/SVG/1.1/DTD/svg11.dtd">
<svg xmlns="http://www.w3.org/2000/svg" version="1.1" width="2048px" height="2048px" style="shape-rendering:geometricPrecision; text-rendering:geometricPrecision; image-rendering:optimizeQuality; fill-rule:evenodd; clip-rule:evenodd" xmlns:xlink="http://www.w3.org/1999/xlink">
<g><path style="opacity:1" fill="#f6de1d" d="M -0.5,-0.5 C 682.167,-0.5 1364.83,-0.5 2047.5,-0.5C 2047.5,682.167 2047.5,1364.83 2047.5,2047.5C 1364.83,2047.5 682.167,2047.5 -0.5,2047.5C -0.5,1364.83 -0.5,682.167 -0.5,-0.5 Z"/></g>
<g><path style="opacity:1" fill="#000000" d="M 1525.5,929.5 C 1572.93,926.349 1619.6,930.849 1665.5,943C 1719.44,959.274 1763.94,989.44 1799,1033.5C 1810.83,1049.15 1821.66,1065.48 1831.5,1082.5C 1782.38,1115.23 1732.71,1147.23 1682.5,1178.5C 1671.67,1160.36 1659,1143.53 1644.5,1128C 1610.7,1099.37 1572.04,1090.03 1528.5,1100C 1479.8,1116.53 1459.64,1150.36 1468,1201.5C 1472.36,1220.72 1482.2,1236.56 1497.5,1249C 1512.11,1260.25 1527.77,1269.92 1544.5,1278C 1586.05,1296.61 1627.72,1314.94 1669.5,1333C 1709.79,1351.46 1747.79,1373.46 1783.5,1399C 1858.17,1456.88 1893.01,1533.38 1888,1628.5C 1883.05,1737.29 1830.88,1813.46 1731.5,1857C 1666.84,1882.2 1599.84,1891.87 1530.5,1886C 1447.17,1881.01 1372.84,1853.01 1307.5,1802C 1270.28,1771.13 1240.95,1734.13 1219.5,1691C 1271.22,1660.39 1323.06,1629.89 1375,1599.5C 1391.77,1628.28 1412.94,1653.45 1438.5,1675C 1487.79,1711.4 1542.79,1724.07 1603.5,1713C 1626.88,1708.8 1647.88,1699.47 1666.5,1685C 1693.27,1659.33 1701.77,1628.5 1692,1592.5C 1686.26,1575.52 1676.42,1561.36 1662.5,1550C 1643.65,1535.73 1623.32,1523.73 1601.5,1514C 1552.6,1492.88 1503.93,1471.22 1455.5,1449C 1414.36,1428.85 1377.53,1402.68 1345,1370.5C 1301.2,1321.83 1278.54,1264.49 1277,1198.5C 1272.69,1109.31 1305.52,1037.48 1375.5,983C 1420.76,951.873 1470.76,934.04 1525.5,929.5 Z"/></g>
<g><path style="opacity:1" fill="#000000" d="M 922.5,940.5 C 986.5,940.5 1050.5,940.5 1114.5,940.5C 1114.5,1162.83 1114.5,1385.17 1114.5,1607.5C 1114.92,1666.07 1100.75,1720.73 1072,1771.5C 1042.06,1817.9 1000.9,1850.07 948.5,1868C 896.331,1884.24 842.998,1889.9 788.5,1885C 673.052,1873.48 590.052,1815.82 539.5,1712C 540.34,1710.23 541.673,1708.9 543.5,1708C 594,1677.5 644.5,1647 695,1616.5C 702.667,1629.17 710.333,1641.83 718,1654.5C 758.704,1715.17 812.87,1731 880.5,1702C 899.73,1688.75 911.897,1670.58 917,1647.5C 919.613,1636.32 921.28,1624.98 922,1613.5C 922.5,1389.17 922.667,1164.83 922.5,940.5 Z"/></g>
<g><path style="opacity:1" fill="#988912" d="M 922.5,940.5 C 986.665,939.501 1051,939.168 1115.5,939.5C 1115.83,1162.33 1115.5,1385 1114.5,1607.5C 1114.5,1385.17 1114.5,1162.83 1114.5,940.5C 1050.5,940.5 986.5,940.5 922.5,940.5 Z"/></g>
</svg>
