<?xml version="1.0" encoding="UTF-8"?>
<!DOCTYPE svg PUBLIC "-//W3C//DTD SVG 1.1//EN" "http://www.w3.org/Graphics/SVG/1.1/DTD/svg11.dtd">
<svg xmlns="http://www.w3.org/2000/svg" version="1.1" width="800px" height="600px" style="shape-rendering:geometricPrecision; text-rendering:geometricPrecision; image-rendering:optimizeQuality; fill-rule:evenodd; clip-rule:evenodd" xmlns:xlink="http://www.w3.org/1999/xlink">
<g><path style="opacity:0.993" fill="#f24e1e" d="M 283.5,-0.5 C 322.167,-0.5 360.833,-0.5 399.5,-0.5C 399.5,65.8333 399.5,132.167 399.5,198.5C 363.996,198.168 328.663,198.502 293.5,199.5C 289.833,199.5 286.167,199.5 282.5,199.5C 237.433,188.932 209.933,160.932 200,115.5C 195.235,61.9961 217.402,24.8294 266.5,4C 272.253,2.31369 277.919,0.813694 283.5,-0.5 Z"/></g>
<g><path style="opacity:0.991" fill="#fe7161" d="M 399.5,-0.5 C 438.167,-0.5 476.833,-0.5 515.5,-0.5C 561.115,9.61552 588.948,37.6155 599,83.5C 603.763,135.497 582.597,172.331 535.5,194C 529.089,196.015 522.756,197.848 516.5,199.5C 503.478,199.289 490.478,199.622 477.5,200.5C 451.833,200.5 426.167,200.5 400.5,200.5C 365.004,199.502 329.337,199.168 293.5,199.5C 328.663,198.502 363.996,198.168 399.5,198.5C 399.5,132.167 399.5,65.8333 399.5,-0.5 Z"/></g>
<g><path style="opacity:0.989" fill="#a159fe" d="M 282.5,199.5 C 286.167,199.5 289.833,199.5 293.5,199.5C 329.337,199.168 365.004,199.502 400.5,200.5C 400.5,226.5 400.5,252.5 400.5,278.5C 399.167,292.5 399.167,306.5 400.5,320.5C 400.5,346.833 400.5,373.167 400.5,399.5C 361.167,399.5 321.833,399.5 282.5,399.5C 230.102,386.763 202.435,353.43 199.5,299.5C 202.435,245.57 230.102,212.237 282.5,199.5 Z"/></g>
<g><path style="opacity:0.986" fill="#1abbfd" d="M 516.5,199.5 C 561.563,210.064 589.063,238.064 599,283.5C 603.842,324.963 589.676,358.13 556.5,383C 519.913,405.532 482.913,406.199 445.5,385C 422.001,369.349 407.001,347.849 400.5,320.5C 399.167,306.5 399.167,292.5 400.5,278.5C 411.397,237.936 437.064,211.936 477.5,200.5C 490.478,199.622 503.478,199.289 516.5,199.5 Z"/></g>
<g><path style="opacity:0.987" fill="#0ace83" d="M 282.5,399.5 C 321.833,399.5 361.167,399.5 400.5,399.5C 400.667,435.502 400.5,471.502 400,507.5C 392.746,557.58 364.579,588.247 315.5,599.5C 304.833,599.5 294.167,599.5 283.5,599.5C 237.885,589.384 210.052,561.384 200,515.5C 195.237,463.503 216.403,426.669 263.5,405C 269.911,402.985 276.244,401.152 282.5,399.5 Z"/></g>
</svg>
