<?xml version="1.0" encoding="UTF-8"?>
<!DOCTYPE svg PUBLIC "-//W3C//DTD SVG 1.1//EN" "http://www.w3.org/Graphics/SVG/1.1/DTD/svg11.dtd">
<svg xmlns="http://www.w3.org/2000/svg" version="1.1" width="4096px" height="4096px" style="shape-rendering:geometricPrecision; text-rendering:geometricPrecision; image-rendering:optimizeQuality; fill-rule:evenodd; clip-rule:evenodd" xmlns:xlink="http://www.w3.org/1999/xlink">
<g><path style="opacity:0.999" fill="#00005b" d="M 1072.5,622.5 C 1727.18,622.005 2381.85,622.505 3036.5,624C 3194.5,640.718 3320.34,712.551 3414,839.5C 3472.73,923.028 3504.4,1016.03 3509,1118.5C 3509.67,1737.83 3509.67,2357.17 3509,2976.5C 3499.58,3132.17 3435.41,3259.67 3316.5,3359C 3230.59,3427.1 3132.59,3464.76 3022.5,3472C 2372.5,3472.67 1722.5,3472.67 1072.5,3472C 908.606,3458.88 778.106,3386.71 681,3255.5C 622.267,3171.97 590.6,3078.97 586,2976.5C 585.333,2357.17 585.333,1737.83 586,1118.5C 595.671,960.315 661.504,831.481 783.5,732C 868.677,666.654 965.011,630.154 1072.5,622.5 Z"/></g>
<g><path style="opacity:1" fill="#9898fe" d="M 1562.5,1347.5 C 1618.18,1347.1 1673.85,1347.6 1729.5,1349C 1822.04,1351.3 1909.38,1373.64 1991.5,1416C 2101.53,1477.77 2168.7,1570.94 2193,1695.5C 2205.25,1770.05 2202.59,1844.05 2185,1917.5C 2162.38,2001.96 2116.88,2071.13 2048.5,2125C 1992.75,2167.36 1930.42,2196.03 1861.5,2211C 1789.78,2225.74 1717.28,2232.57 1644,2231.5C 1610.85,2230.35 1577.68,2229.68 1544.5,2229.5C 1544.67,2361.5 1544.5,2493.5 1544,2625.5C 1542.59,2630.57 1539.43,2634.07 1534.5,2636C 1452.17,2636.67 1369.83,2636.67 1287.5,2636C 1285,2634.83 1283.17,2633 1282,2630.5C 1280.34,2207.54 1280,1784.54 1281,1361.5C 1282.5,1358.67 1284.67,1356.5 1287.5,1355C 1379.34,1352.8 1471.01,1350.3 1562.5,1347.5 Z"/></g>
<g><path style="opacity:1" fill="#00005b" d="M 1553.5,1999.5 C 1551.39,1998.53 1549.06,1998.2 1546.5,1998.5C 1546.5,1862.17 1546.5,1725.83 1546.5,1589.5C 1555.61,1588.13 1564.77,1587.47 1574,1587.5C 1602.32,1587.99 1630.65,1587.99 1659,1587.5C 1721.08,1583.11 1780.58,1593.28 1837.5,1618C 1893.5,1647.72 1925.66,1694.22 1934,1757.5C 1938.55,1797.87 1934.22,1837.2 1921,1875.5C 1912.68,1895.99 1900.51,1913.82 1884.5,1929C 1854.37,1957.07 1819.04,1975.74 1778.5,1985C 1728.19,1998.18 1677.02,2003.68 1625,2001.5C 1601.13,2001.69 1577.3,2001.03 1553.5,1999.5 Z"/></g>
<g><path style="opacity:1" fill="#232381" d="M 1546.5,1589.5 C 1546.5,1725.83 1546.5,1862.17 1546.5,1998.5C 1549.06,1998.2 1551.39,1998.53 1553.5,1999.5C 1550.83,1999.5 1548.17,1999.5 1545.5,1999.5C 1545.17,1862.67 1545.5,1726 1546.5,1589.5 Z"/></g>
<g><path style="opacity:1" fill="#9898fe" d="M 2922.5,1639.5 C 2930.84,1639.33 2939.17,1639.5 2947.5,1640C 2953,1641.5 2956.5,1645 2958,1650.5C 2958.99,1734.56 2958.66,1818.56 2957,1902.5C 2954.61,1905.63 2951.45,1907.47 2947.5,1908C 2869.09,1905.39 2793.43,1918.39 2720.5,1947C 2691.21,1958.22 2665.71,1975.05 2644,1997.5C 2643.67,2206.5 2643.33,2415.5 2643,2624.5C 2642.52,2630.66 2639.35,2634.49 2633.5,2636C 2548.5,2636.67 2463.5,2636.67 2378.5,2636C 2372.84,2633.67 2369.34,2629.5 2368,2623.5C 2367.67,2371.83 2367.33,2120.17 2367,1868.5C 2365.8,1825.5 2364.8,1782.5 2364,1739.5C 2362.96,1717.63 2361.46,1695.8 2359.5,1674C 2358.28,1666.27 2361.45,1661.44 2369,1659.5C 2443.14,1660.33 2517.31,1660.83 2591.5,1661C 2598.5,1663.67 2604,1668.17 2608,1674.5C 2610.93,1680.95 2613.26,1687.62 2615,1694.5C 2621.79,1726.48 2625.45,1758.81 2626,1791.5C 2683.56,1725.32 2754.4,1679.16 2838.5,1653C 2866.17,1645.55 2894.17,1641.05 2922.5,1639.5 Z"/></g>
</svg>
