<?xml version="1.0" encoding="UTF-8"?>
<!DOCTYPE svg PUBLIC "-//W3C//DTD SVG 1.1//EN" "http://www.w3.org/Graphics/SVG/1.1/DTD/svg11.dtd">
<svg xmlns="http://www.w3.org/2000/svg" version="1.1" width="2048px" height="2048px" style="shape-rendering:geometricPrecision; text-rendering:geometricPrecision; image-rendering:optimizeQuality; fill-rule:evenodd; clip-rule:evenodd" xmlns:xlink="http://www.w3.org/1999/xlink">
<g><path style="opacity:0.991" fill="#000000" d="M 432.5,-0.5 C 463.5,-0.5 494.5,-0.5 525.5,-0.5C 525.5,29.8333 525.5,60.1667 525.5,90.5C 553.5,90.5 581.5,90.5 609.5,90.5C 609.5,60.1667 609.5,29.8333 609.5,-0.5C 640.5,-0.5 671.5,-0.5 702.5,-0.5C 702.5,91.5 702.5,183.5 702.5,275.5C 671.5,275.5 640.5,275.5 609.5,275.5C 609.5,244.833 609.5,214.167 609.5,183.5C 581.833,183.5 554.167,183.5 526.5,183.5C 526.5,214.167 526.5,244.833 526.5,275.5C 495.167,275.5 463.833,275.5 432.5,275.5C 432.5,183.5 432.5,91.5 432.5,-0.5 Z"/></g>
<g><path style="opacity:0.997" fill="#000000" d="M 741.5,-0.5 C 826.833,-0.5 912.167,-0.5 997.5,-0.5C 997.5,30.1667 997.5,60.8333 997.5,91.5C 970.167,91.5 942.833,91.5 915.5,91.5C 915.5,152.833 915.5,214.167 915.5,275.5C 884.833,275.5 854.167,275.5 823.5,275.5C 823.5,214.167 823.5,152.833 823.5,91.5C 796.167,91.5 768.833,91.5 741.5,91.5C 741.5,60.8333 741.5,30.1667 741.5,-0.5 Z"/></g>
<g><path style="opacity:0.991" fill="#000000" d="M 1037.5,-0.5 C 1069.83,-0.5 1102.17,-0.5 1134.5,-0.5C 1154.17,31.3509 1173.67,63.3509 1193,95.5C 1212.76,63.6388 1232.26,31.6388 1251.5,-0.5C 1284.17,-0.5 1316.83,-0.5 1349.5,-0.5C 1349.5,91.5 1349.5,183.5 1349.5,275.5C 1318.5,275.5 1287.5,275.5 1256.5,275.5C 1256.67,230.499 1256.5,185.499 1256,140.5C 1235.08,173.337 1213.92,206.004 1192.5,238.5C 1171.17,206.325 1150,173.991 1129,141.5C 1128.5,186.165 1128.33,230.832 1128.5,275.5C 1098.17,275.5 1067.83,275.5 1037.5,275.5C 1037.5,183.5 1037.5,91.5 1037.5,-0.5 Z"/></g>
<g><path style="opacity:0.988" fill="#000000" d="M 1393.5,-0.5 C 1424.5,-0.5 1455.5,-0.5 1486.5,-0.5C 1486.5,60.8333 1486.5,122.167 1486.5,183.5C 1530.17,183.5 1573.83,183.5 1617.5,183.5C 1617.5,214.167 1617.5,244.833 1617.5,275.5C 1542.83,275.5 1468.17,275.5 1393.5,275.5C 1393.5,183.5 1393.5,91.5 1393.5,-0.5 Z"/></g>
<g><path style="opacity:0.998" fill="#e44d26" d="M 1026.5,2047.5 C 1023.83,2047.5 1021.17,2047.5 1018.5,2047.5C 822.427,1992.59 626.094,1938.26 429.5,1884.5C 385.38,1390.18 341.38,895.846 297.5,401.5C 781.5,401.5 1265.5,401.5 1749.5,401.5C 1705.68,895.518 1661.68,1389.52 1617.5,1883.5C 1420.27,1937.72 1223.27,1992.39 1026.5,2047.5 Z"/></g>
<g><path style="opacity:1" fill="#f16529" d="M 1022.5,1733.5 C 1023.17,1733.5 1023.5,1733.17 1023.5,1732.5C 1147.51,1698.73 1271.35,1664.4 1395,1629.5C 1411.41,1443.82 1427.91,1258.15 1444.5,1072.5C 1303.83,1072.5 1163.17,1072.5 1022.5,1072.5C 942.665,1072.83 862.998,1072.5 783.5,1071.5C 863.5,1071.5 943.5,1071.5 1023.5,1071.5C 1023.5,1009.83 1023.5,948.167 1023.5,886.5C 1169.5,886.5 1315.5,886.5 1461.5,886.5C 1461.5,885.167 1461.5,883.833 1461.5,882.5C 1466.88,823.17 1472.22,763.836 1477.5,704.5C 1326.17,704.5 1174.83,704.5 1023.5,704.5C 1023.5,644.167 1023.5,583.833 1023.5,523.5C 1221.17,523.5 1418.83,523.5 1616.5,523.5C 1578.86,943.075 1541.36,1362.74 1504,1782.5C 1503.8,1784.26 1503.3,1785.92 1502.5,1787.5C 1342.95,1832.07 1183.45,1876.74 1024,1921.5C 1023.83,1858.76 1023.33,1796.1 1022.5,1733.5 Z"/></g>
<g><path style="opacity:1" fill="#eacac3" d="M 1022.5,704.5 C 1022.5,704.833 1022.5,705.167 1022.5,705.5C 871.167,705.5 719.833,705.5 568.5,705.5C 568.5,706.833 568.5,708.167 568.5,709.5C 567.549,708.081 567.216,706.415 567.5,704.5C 719.167,704.5 870.833,704.5 1022.5,704.5 Z"/></g>
<g><path style="opacity:1" fill="#ebeaea" d="M 1022.5,705.5 C 1022.5,765.5 1022.5,825.5 1022.5,885.5C 937.167,885.5 851.833,885.5 766.5,885.5C 766.19,888.713 766.523,891.713 767.5,894.5C 772.977,953.465 778.31,1012.46 783.5,1071.5C 862.998,1072.5 942.665,1072.83 1022.5,1072.5C 1022.5,1132.83 1022.5,1193.17 1022.5,1253.5C 887.167,1253.5 751.833,1253.5 616.5,1253.5C 600.56,1072.16 584.56,890.831 568.5,709.5C 568.5,708.167 568.5,706.833 568.5,705.5C 719.833,705.5 871.167,705.5 1022.5,705.5 Z"/></g>
<g><path style="opacity:1" fill="#fefefe" d="M 1022.5,704.5 C 1022.83,704.5 1023.17,704.5 1023.5,704.5C 1174.83,704.5 1326.17,704.5 1477.5,704.5C 1472.22,763.836 1466.88,823.17 1461.5,882.5C 1460.6,883.209 1460.26,884.209 1460.5,885.5C 1314.67,885.167 1169,885.5 1023.5,886.5C 1023.17,886.5 1022.83,886.5 1022.5,886.5C 1022.5,886.167 1022.5,885.833 1022.5,885.5C 1022.5,825.5 1022.5,765.5 1022.5,705.5C 1022.5,705.167 1022.5,704.833 1022.5,704.5 Z"/></g>
<g><path style="opacity:1" fill="#eacac2" d="M 1022.5,885.5 C 1022.5,885.833 1022.5,886.167 1022.5,886.5C 937.5,886.5 852.5,886.5 767.5,886.5C 767.5,889.167 767.5,891.833 767.5,894.5C 766.523,891.713 766.19,888.713 766.5,885.5C 851.833,885.5 937.167,885.5 1022.5,885.5 Z"/></g>
<g><path style="opacity:1" fill="#fcdfd3" d="M 1461.5,882.5 C 1461.5,883.833 1461.5,885.167 1461.5,886.5C 1315.5,886.5 1169.5,886.5 1023.5,886.5C 1169,885.5 1314.67,885.167 1460.5,885.5C 1460.26,884.209 1460.6,883.209 1461.5,882.5 Z"/></g>
<g><path style="opacity:1" fill="#e44d26" d="M 1022.5,886.5 C 1022.83,886.5 1023.17,886.5 1023.5,886.5C 1023.5,948.167 1023.5,1009.83 1023.5,1071.5C 943.5,1071.5 863.5,1071.5 783.5,1071.5C 778.31,1012.46 772.977,953.465 767.5,894.5C 767.5,891.833 767.5,889.167 767.5,886.5C 852.5,886.5 937.5,886.5 1022.5,886.5 Z"/></g>
<g><path style="opacity:1" fill="#fefefe" d="M 1022.5,1072.5 C 1163.17,1072.5 1303.83,1072.5 1444.5,1072.5C 1427.91,1258.15 1411.41,1443.82 1395,1629.5C 1271.35,1664.4 1147.51,1698.73 1023.5,1732.5C 1022.83,1701.34 1022.5,1670 1022.5,1638.5C 1022.51,1606.62 1023.17,1574.95 1024.5,1543.5C 1091.41,1525.73 1158.24,1507.73 1225,1489.5C 1232.59,1410.86 1239.75,1332.19 1246.5,1253.5C 1171.83,1253.5 1097.17,1253.5 1022.5,1253.5C 1022.5,1193.17 1022.5,1132.83 1022.5,1072.5 Z"/></g>
<g><path style="opacity:1" fill="#f16529" d="M 1022.5,1253.5 C 1097.17,1253.5 1171.83,1253.5 1246.5,1253.5C 1239.75,1332.19 1232.59,1410.86 1225,1489.5C 1158.24,1507.73 1091.41,1525.73 1024.5,1543.5C 1024.17,1543.5 1023.83,1543.5 1023.5,1543.5C 1023.83,1446.76 1023.5,1350.1 1022.5,1253.5 Z"/></g>
<g><path style="opacity:1" fill="#ebeaea" d="M 1023.5,1543.5 C 1023.83,1543.5 1024.17,1543.5 1024.5,1543.5C 1023.17,1574.95 1022.51,1606.62 1022.5,1638.5C 1022.5,1670 1022.83,1701.34 1023.5,1732.5C 1023.5,1733.17 1023.17,1733.5 1022.5,1733.5C 898.494,1699.16 774.494,1664.83 650.5,1630.5C 642.407,1535.15 634.074,1439.81 625.5,1344.5C 686.167,1344.5 746.833,1344.5 807.5,1344.5C 812.097,1393.13 816.43,1441.8 820.5,1490.5C 888.214,1508.04 955.881,1525.71 1023.5,1543.5 Z"/></g>
</svg>
