<?xml version="1.0" encoding="UTF-8"?>
<!DOCTYPE svg PUBLIC "-//W3C//DTD SVG 1.1//EN" "http://www.w3.org/Graphics/SVG/1.1/DTD/svg11.dtd">
<svg xmlns="http://www.w3.org/2000/svg" version="1.1" width="1200px" height="1682px" style="shape-rendering:geometricPrecision; text-rendering:geometricPrecision; image-rendering:optimizeQuality; fill-rule:evenodd; clip-rule:evenodd" xmlns:xlink="http://www.w3.org/1999/xlink">
<g><path style="opacity:0.983" fill="#000000" d="M 289.5,1.5 C 346.503,1.45801 403.503,1.79134 460.5,2.5C 460.5,25.8333 460.5,49.1667 460.5,72.5C 409.505,71.7725 358.505,71.7725 307.5,72.5C 306.619,105.491 306.286,138.491 306.5,171.5C 357.829,172.282 409.163,172.615 460.5,172.5C 460.741,191.851 460.408,211.185 459.5,230.5C 385.837,229.621 312.171,229.288 238.5,229.5C 238.5,153.833 238.5,78.1667 238.5,2.5C 255.675,2.82992 272.675,2.49659 289.5,1.5 Z"/></g>
<g><path style="opacity:0.983" fill="#000000" d="M 554.5,1.5 C 606.503,1.50974 658.503,1.84307 710.5,2.5C 710.5,24.5 710.5,46.5 710.5,68.5C 656.163,68.349 601.829,68.6823 547.5,69.5C 547.5,77.8333 547.5,86.1667 547.5,94.5C 601.503,94.5 655.503,94.8334 709.5,95.5C 709.795,140.167 710.128,184.834 710.5,229.5C 635.499,229.619 560.499,229.953 485.5,230.5C 485.5,212.167 485.5,193.833 485.5,175.5C 537.167,175.5 588.833,175.5 640.5,175.5C 640.973,164.172 641.307,152.838 641.5,141.5C 589.5,141.5 537.5,141.5 485.5,141.5C 485.5,95.1667 485.5,48.8333 485.5,2.5C 508.673,2.83084 531.673,2.49751 554.5,1.5 Z"/></g>
<g><path style="opacity:0.98" fill="#000000" d="M 734.5,2.5 C 809.167,2.5 883.833,2.5 958.5,2.5C 958.5,24.8333 958.5,47.1667 958.5,69.5C 903.833,69.5 849.167,69.5 794.5,69.5C 795.299,78.1423 795.632,86.8089 795.5,95.5C 849.838,95.311 904.171,95.6443 958.5,96.5C 958.5,141.167 958.5,185.833 958.5,230.5C 883.5,230.5 808.5,230.5 733.5,230.5C 733.5,212.167 733.5,193.833 733.5,175.5C 785.167,175.5 836.833,175.5 888.5,175.5C 888.5,164.167 888.5,152.833 888.5,141.5C 836.833,141.5 785.167,141.5 733.5,141.5C 733.32,95.1612 733.653,48.8279 734.5,2.5 Z"/></g>
<g><path style="opacity:0.999" fill="#0170ba" d="M -0.5,323.5 C 398.833,323.5 798.167,323.5 1197.5,323.5C 1161.78,729.867 1125.62,1136.2 1089,1542.5C 1088.63,1543.42 1088.13,1544.25 1087.5,1545C 925.46,1589.63 763.793,1635.13 602.5,1681.5C 599.167,1681.5 595.833,1681.5 592.5,1681.5C 431.746,1635.39 270.746,1589.72 109.5,1544.5C 109.167,1543.83 108.833,1543.17 108.5,1542.5C 74.8833,1172.22 41.7166,801.882 9,431.5C 6.4521,400.62 3.28543,369.953 -0.5,339.5C -0.5,334.167 -0.5,328.833 -0.5,323.5 Z"/></g>
<g><path style="opacity:1" fill="#29a9df" d="M 598.5,1421.5 C 600.167,1420.83 601.833,1420.17 603.5,1419.5C 712.66,1392 821.494,1363.34 930,1333.5C 936.639,1255.8 943.639,1178.13 951,1100.5C 957.522,1023.55 963.355,946.546 968.5,869.5C 862.752,869.996 757.085,869.496 651.5,868C 669.287,858.772 687.287,850.106 705.5,842C 785.249,807.528 864.916,772.861 944.5,738C 955.794,733.237 966.794,727.904 977.5,722C 978.333,721.167 979.167,720.333 980,719.5C 984.239,678.875 988.239,638.208 992,597.5C 992.754,586.842 993.254,576.176 993.5,565.5C 862.17,564.563 730.837,564.23 599.5,564.5C 599.5,516.833 599.5,469.167 599.5,421.5C 762.5,421.5 925.5,421.5 1088.5,421.5C 1059.77,743.797 1031.27,1066.13 1003,1388.5C 1000.84,1414.55 998.176,1440.55 995,1466.5C 870.309,1501.4 745.476,1535.9 620.5,1570C 613.565,1571.6 606.565,1572.77 599.5,1573.5C 599.415,1542.83 599.749,1512.16 600.5,1481.5C 600.182,1461.49 599.515,1441.49 598.5,1421.5 Z"/></g>
<g><path style="opacity:1" fill="#cecece" d="M 599.5,564.5 C 599.317,715.168 599.65,865.835 600.5,1016.5C 478.171,1017.28 355.838,1017.95 233.5,1018.5C 229.631,975.51 225.798,932.51 222,889.5C 221.185,881.254 221.352,873.088 222.5,865C 226.007,862.746 229.673,860.746 233.5,859C 350.747,808.917 467.747,758.25 584.5,707C 558.846,705.901 533.18,705.234 507.5,705C 406.163,704.758 304.83,704.258 203.5,703.5C 196.61,657.38 191.61,611.046 188.5,564.5C 325.5,564.5 462.5,564.5 599.5,564.5 Z"/></g>
<g><path style="opacity:1" fill="#fefefe" d="M 599.5,564.5 C 730.837,564.23 862.17,564.563 993.5,565.5C 993.254,576.176 992.754,586.842 992,597.5C 988.239,638.208 984.239,678.875 980,719.5C 979.167,720.333 978.333,721.167 977.5,722C 966.794,727.904 955.794,733.237 944.5,738C 864.916,772.861 785.249,807.528 705.5,842C 687.287,850.106 669.287,858.772 651.5,868C 757.085,869.496 862.752,869.996 968.5,869.5C 963.355,946.546 957.522,1023.55 951,1100.5C 943.639,1178.13 936.639,1255.8 930,1333.5C 821.494,1363.34 712.66,1392 603.5,1419.5C 602.732,1418.74 602.232,1417.74 602,1416.5C 601.144,1408.52 600.477,1400.52 600,1392.5C 600.116,1350.83 599.949,1309.16 599.5,1267.5C 599.5,1267.17 599.5,1266.83 599.5,1266.5C 611.363,1262.05 623.363,1257.88 635.5,1254C 683.321,1240.34 730.988,1226.17 778.5,1211.5C 782.789,1146.49 787.123,1081.49 791.5,1016.5C 727.833,1016.5 664.167,1016.5 600.5,1016.5C 599.65,865.835 599.317,715.168 599.5,564.5 Z"/></g>
<g><path style="opacity:1" fill="#29a8de" d="M 600.5,1016.5 C 664.167,1016.5 727.833,1016.5 791.5,1016.5C 787.123,1081.49 782.789,1146.49 778.5,1211.5C 730.988,1226.17 683.321,1240.34 635.5,1254C 623.363,1257.88 611.363,1262.05 599.5,1266.5C 599.244,1183.16 599.577,1099.83 600.5,1016.5 Z"/></g>
<g><path style="opacity:1" fill="#cecece" d="M 599.5,1267.5 C 599.949,1309.16 600.116,1350.83 600,1392.5C 600.477,1400.52 601.144,1408.52 602,1416.5C 602.232,1417.74 602.732,1418.74 603.5,1419.5C 601.833,1420.17 600.167,1420.83 598.5,1421.5C 594.123,1421.42 589.79,1420.92 585.5,1420C 479.158,1393.91 373.158,1366.58 267.5,1338C 255.243,1261.34 247.576,1184.18 244.5,1106.5C 289.835,1106.33 335.168,1106.5 380.5,1107C 384.558,1107.34 388.558,1108.01 392.5,1109C 396.354,1148.08 399.854,1187.25 403,1226.5C 403.309,1227.77 403.809,1228.93 404.5,1230C 469.305,1243.58 534.305,1256.08 599.5,1267.5 Z"/></g>
</svg>
