<?xml version="1.0" encoding="UTF-8"?>
<!DOCTYPE svg PUBLIC "-//W3C//DTD SVG 1.1//EN" "http://www.w3.org/Graphics/SVG/1.1/DTD/svg11.dtd">
<svg xmlns="http://www.w3.org/2000/svg" version="1.1" width="4096px" height="4096px" style="shape-rendering:geometricPrecision; text-rendering:geometricPrecision; image-rendering:optimizeQuality; fill-rule:evenodd; clip-rule:evenodd" xmlns:xlink="http://www.w3.org/1999/xlink">
<g><path style="opacity:1" fill="#001e36" d="M 1085.5,636.5 C 1731.84,636.005 2378.18,636.505 3024.5,638C 3186.36,654.468 3313.86,728.635 3407,860.5C 3459.31,938.442 3488.31,1024.44 3494,1118.5C 3494.67,1737.83 3494.67,2357.17 3494,2976.5C 3482.55,3126.25 3419.71,3249.09 3305.5,3345C 3219.12,3413.82 3120.45,3451.48 3009.5,3458C 2368.17,3458.67 1726.83,3458.67 1085.5,3458C 917.289,3445.51 784.789,3371.01 688,3234.5C 635.685,3156.56 606.685,3070.56 601,2976.5C 600.333,2357.17 600.333,1737.83 601,1118.5C 612.703,966.241 677.203,842.074 794.5,746C 880.117,679.842 977.117,643.342 1085.5,636.5 Z"/></g>
<g><path style="opacity:1" fill="#30a7fe" d="M 1551.5,1355.5 C 1600.51,1355.12 1649.51,1355.62 1698.5,1357C 1779.63,1359.89 1857.3,1377.56 1931.5,1410C 2076.22,1481.18 2153.72,1597.68 2164,1759.5C 2167.97,1829.94 2157.97,1898.28 2134,1964.5C 2095.71,2055.45 2032.55,2123.29 1944.5,2168C 1881.39,2197.69 1815.06,2215.69 1745.5,2222C 1724.53,2224.07 1703.53,2225.74 1682.5,2227C 1626.5,2227.58 1570.5,2227.42 1514.5,2226.5C 1514.67,2357.17 1514.5,2487.83 1514,2618.5C 1513.04,2624.13 1509.88,2627.96 1504.5,2630C 1422.83,2630.67 1341.17,2630.67 1259.5,2630C 1256.27,2628.44 1254.1,2625.94 1253,2622.5C 1252.33,2204.5 1252.33,1786.5 1253,1368.5C 1253.79,1365.42 1255.62,1363.25 1258.5,1362C 1356.33,1360.04 1454,1357.87 1551.5,1355.5 Z"/></g>
<g><path style="opacity:1" fill="#001e36" d="M 1584.5,1590.5 C 1615.84,1590.33 1647.17,1590.5 1678.5,1591C 1726.12,1593.49 1771.12,1605.49 1813.5,1627C 1864.7,1658.84 1893.53,1705.01 1900,1765.5C 1903.6,1805.15 1898.27,1843.49 1884,1880.5C 1870.6,1907.9 1851.43,1930.4 1826.5,1948C 1795.78,1968.51 1762.11,1982.18 1725.5,1989C 1680.7,1998.86 1635.37,2002.69 1589.5,2000.5C 1564.49,2000.39 1539.49,2000.05 1514.5,1999.5C 1514.5,1864.17 1514.5,1728.83 1514.5,1593.5C 1537.98,1592.2 1561.31,1591.2 1584.5,1590.5 Z"/></g>
<g><path style="opacity:1" fill="#30a7fe" d="M 2635.5,1653.5 C 2710.82,1651.2 2785.49,1657.03 2859.5,1671C 2884.3,1677.15 2908.3,1685.49 2931.5,1696C 2933,1698.17 2934.5,1700.33 2936,1702.5C 2937.65,1774.46 2937.99,1846.46 2937,1918.5C 2933.52,1925.85 2927.69,1928.69 2919.5,1927C 2865.68,1900.39 2809.01,1883.06 2749.5,1875C 2710.66,1869.83 2671.66,1868.17 2632.5,1870C 2616.97,1871.95 2601.64,1874.95 2586.5,1879C 2553.72,1891.09 2540.55,1914.26 2547,1948.5C 2551.39,1960.56 2558.55,1970.73 2568.5,1979C 2583.66,1990.76 2600,2000.76 2617.5,2009C 2628.83,2014.33 2640.17,2019.67 2651.5,2025C 2681.42,2036.86 2711.42,2048.53 2741.5,2060C 2789.42,2080.46 2835.09,2104.79 2878.5,2133C 2966.17,2197.23 3003.01,2283.73 2989,2392.5C 2975.26,2480.52 2930.76,2548.02 2855.5,2595C 2801.18,2625.99 2742.85,2644.99 2680.5,2652C 2584.48,2662.98 2489.48,2657.31 2395.5,2635C 2362.61,2627.04 2330.95,2615.7 2300.5,2601C 2295.98,2597.46 2292.81,2592.96 2291,2587.5C 2290.33,2512.83 2290.33,2438.17 2291,2363.5C 2294.25,2358.78 2298.75,2357.28 2304.5,2359C 2347.02,2384.59 2392.36,2403.59 2440.5,2416C 2492.59,2429.7 2545.59,2436.86 2599.5,2437.5C 2629.22,2438.18 2658.22,2434.01 2686.5,2425C 2717.39,2414.07 2731.22,2392.24 2728,2359.5C 2723.19,2345.38 2715.02,2333.55 2703.5,2324C 2697.18,2318.84 2690.52,2314.17 2683.5,2310C 2665.35,2299.93 2646.69,2290.93 2627.5,2283C 2594.09,2270.2 2560.75,2257.2 2527.5,2244C 2473.87,2220.54 2424.54,2190.54 2379.5,2154C 2313.47,2092.72 2283.97,2016.88 2291,1926.5C 2303.27,1829.41 2351.43,1756.25 2435.5,1707C 2475.59,1684.64 2518.25,1669.64 2563.5,1662C 2587.5,1657.93 2611.5,1655.1 2635.5,1653.5 Z"/></g>
</svg>
