<?xml version="1.0" encoding="UTF-8"?>
<!DOCTYPE svg PUBLIC "-//W3C//DTD SVG 1.1//EN" "http://www.w3.org/Graphics/SVG/1.1/DTD/svg11.dtd">
<svg xmlns="http://www.w3.org/2000/svg" version="1.1" width="2400px" height="2850px" style="shape-rendering:geometricPrecision; text-rendering:geometricPrecision; image-rendering:optimizeQuality; fill-rule:evenodd; clip-rule:evenodd" xmlns:xlink="http://www.w3.org/1999/xlink">
<g><path style="opacity:0.998" fill="#ee4322" d="M 1149.5,-0.5 C 1150.17,-0.5 1150.83,-0.5 1151.5,-0.5C 1239.52,66.2247 1307.69,149.225 1356,248.5C 1388.54,317.531 1403.54,390.198 1401,466.5C 1398.53,503.499 1392.2,539.833 1382,575.5C 1368.52,619.934 1355.86,664.6 1344,709.5C 1334.74,745.613 1331.07,782.28 1333,819.5C 1338.29,875.903 1361.12,923.736 1401.5,963C 1447.74,998.71 1499.07,1008.38 1555.5,992C 1610.21,974.957 1644.71,938.79 1659,883.5C 1659.16,867.638 1655.99,852.471 1649.5,838C 1769,896.118 1873.17,974.952 1962,1074.5C 2021.28,1142.34 2066.28,1219.01 2097,1304.5C 2169.23,1534.01 2128.9,1741.01 1976,1925.5C 1907.22,2004.41 1827.72,2069.91 1737.5,2122C 1643.55,2176.31 1543.55,2214.97 1437.5,2238C 1507.49,2210.2 1570.49,2171.53 1626.5,2122C 1748.37,2007.37 1786.87,1869.2 1742,1707.5C 1718.35,1639.17 1682.69,1578.17 1635,1524.5C 1600.95,1486.44 1563.78,1451.94 1523.5,1421C 1479.39,1387.77 1433.72,1356.77 1386.5,1328C 1319.44,1288.25 1253.44,1246.92 1188.5,1204C 1143.42,1172.92 1104.92,1135.08 1073,1090.5C 1057.83,1067.67 1048.17,1042.67 1044,1015.5C 1043.33,1005.5 1043.33,995.5 1044,985.5C 1045.22,976.988 1046.88,968.654 1049,960.5C 994.187,1009.1 959.187,1069.43 944,1141.5C 936.046,1192.78 943.38,1241.78 966,1288.5C 983.937,1324.07 1005.6,1357.07 1031,1387.5C 1046.92,1406.76 1063.59,1425.43 1081,1443.5C 1122.56,1492.4 1137.23,1548.4 1125,1611.5C 1112.09,1656.74 1083.59,1687.58 1039.5,1704C 979.782,1724.92 925.449,1715.59 876.5,1676C 835.78,1638.18 819.946,1591.68 829,1536.5C 831.712,1519.94 835.046,1503.6 839,1487.5C 767.077,1537.75 708.743,1600.42 664,1675.5C 576.217,1832.49 589.884,1979.49 705,2116.5C 750.458,2168.8 804.624,2209.3 867.5,2238C 724.04,2206.93 597.373,2143.6 487.5,2048C 346.255,1918.48 272.755,1757.31 267,1564.5C 265.406,1455.14 284.406,1349.47 324,1247.5C 360.839,1153.79 408.505,1066.46 467,985.5C 524.125,908.735 586.458,836.069 654,767.5C 699.446,721.732 745.946,677.232 793.5,634C 852.254,582.937 910.254,530.937 967.5,478C 1012.1,435.093 1052.6,388.926 1089,339.5C 1122.3,292.57 1147.97,241.57 1166,186.5C 1177.44,149.525 1180.78,111.858 1176,73.5C 1171.93,47.0446 1163.1,22.378 1149.5,-0.5 Z"/></g>
<g><path style="opacity:0.977" fill="#ee4322" d="M 1720.5,2406.5 C 1722.11,2409.02 1723.44,2411.85 1724.5,2415C 1744.5,2415.67 1764.5,2415.67 1784.5,2415C 1785,2414.5 1785.5,2414 1786,2413.5C 1782.98,2437.09 1779.48,2460.59 1775.5,2484C 1754.93,2484.83 1734.43,2484.66 1714,2483.5C 1712.51,2478.59 1712.17,2473.59 1713,2468.5C 1715.67,2447.84 1718.17,2427.18 1720.5,2406.5 Z"/></g>
<g><path style="opacity:0.988" fill="#ee4322" d="M 1919.5,2406.5 C 1920.16,2407.62 1920.49,2408.95 1920.5,2410.5C 1916,2442.49 1911.67,2474.49 1907.5,2506.5C 1934.51,2506.17 1961.51,2506.5 1988.5,2507.5C 1981.93,2522.39 1975.26,2537.23 1968.5,2552C 1945.84,2552.5 1923.17,2552.67 1900.5,2552.5C 1894.91,2593.96 1888.58,2635.29 1881.5,2676.5C 1881.74,2684.85 1885.74,2690.35 1893.5,2693C 1905.1,2695.3 1916.43,2694.3 1927.5,2690C 1934.21,2686.9 1940.71,2683.4 1947,2679.5C 1956.05,2691.11 1965.22,2702.61 1974.5,2714C 1959.2,2727.15 1941.53,2735.82 1921.5,2740C 1899.79,2744.62 1878.12,2743.96 1856.5,2738C 1837.1,2731.26 1825.6,2717.76 1822,2697.5C 1821.33,2688.5 1821.33,2679.5 1822,2670.5C 1827.59,2634.88 1832.75,2599.22 1837.5,2563.5C 1839.46,2564.14 1841.29,2564.14 1843,2563.5C 1844.25,2560.01 1845.41,2556.51 1846.5,2553C 1832.5,2552.5 1818.5,2552.33 1804.5,2552.5C 1806.78,2537.21 1808.78,2521.87 1810.5,2506.5C 1822.52,2506.83 1834.52,2506.5 1846.5,2505.5C 1850.31,2479.14 1854.31,2452.81 1858.5,2426.5C 1879.07,2420.2 1899.4,2413.53 1919.5,2406.5 Z"/></g>
<g><path style="opacity:0.989" fill="#ee4322" d="M -0.5,2640.5 C -0.5,2626.17 -0.5,2611.83 -0.5,2597.5C 2.83452,2563.68 10.3345,2530.68 22,2498.5C 42.4326,2447.75 79.9326,2419.25 134.5,2413C 160.306,2409.47 185.64,2411.47 210.5,2419C 245.147,2433.68 264.647,2459.84 269,2497.5C 269.5,2508.16 269.667,2518.83 269.5,2529.5C 254.833,2529.5 240.167,2529.5 225.5,2529.5C 231.162,2482.48 210.329,2459.15 163,2459.5C 122.443,2459.44 94.4433,2478.1 79,2515.5C 64.6013,2555.62 58.6013,2596.96 61,2639.5C 65.8005,2675.12 86.3005,2692.79 122.5,2692.5C 160.893,2690.72 189.393,2673.06 208,2639.5C 221.97,2648.64 235.803,2657.97 249.5,2667.5C 219.711,2718.41 175.045,2743.41 115.5,2742.5C 45.8287,2743.48 7.16203,2709.48 -0.5,2640.5 Z"/></g>
<g><path style="opacity:0.989" fill="#ee4322" d="M 701.5,2415.5 C 721.511,2415.17 741.511,2415.5 761.5,2416.5C 744.555,2529.78 727.888,2643.12 711.5,2756.5C 696.833,2756.5 682.167,2756.5 667.5,2756.5C 666.695,2747.36 665.195,2738.36 663,2729.5C 655.21,2735.64 646.377,2739.48 636.5,2741C 619.865,2742.54 603.199,2742.87 586.5,2742C 535.818,2736.2 509.651,2707.7 508,2656.5C 507.456,2620.76 514.123,2586.43 528,2553.5C 547.569,2515.11 579.069,2494.94 622.5,2493C 645.959,2490.83 667.959,2495.16 688.5,2506C 687.371,2501.92 687.204,2497.75 688,2493.5C 692.399,2467.44 696.899,2441.44 701.5,2415.5 Z M 621.5,2535.5 C 637.55,2534.27 653.216,2536.1 668.5,2541C 671.855,2542.12 675.022,2543.62 678,2545.5C 672.433,2591.13 665.933,2636.63 658.5,2682C 638.934,2693.48 617.934,2697.81 595.5,2695C 582.722,2692.89 574.222,2685.72 570,2673.5C 566.308,2642.68 568.974,2612.35 578,2582.5C 581.699,2567.93 588.866,2555.43 599.5,2545C 606.288,2540.36 613.621,2537.19 621.5,2535.5 Z"/></g>
<g><path style="opacity:0.987" fill="#ee4322" d="M 1030.5,2438.5 C 1072.84,2438.17 1115.17,2438.5 1157.5,2439.5C 1155.5,2454.17 1153.5,2468.83 1151.5,2483.5C 1140.52,2484.5 1129.52,2484.83 1118.5,2484.5C 1107.39,2559.26 1095.72,2633.93 1083.5,2708.5C 1094.48,2709.5 1105.48,2709.83 1116.5,2709.5C 1114.47,2725.13 1112.8,2740.79 1111.5,2756.5C 1069.16,2756.83 1026.83,2756.5 984.5,2755.5C 986.663,2740.19 988.663,2724.86 990.5,2709.5C 1001.5,2709.5 1012.5,2709.5 1023.5,2709.5C 1034.89,2634.45 1046.55,2559.45 1058.5,2484.5C 1047.5,2484.5 1036.5,2484.5 1025.5,2484.5C 1027.66,2469.23 1029.33,2453.89 1030.5,2438.5 Z"/></g>
<g><path style="opacity:0.991" fill="#ee4322" d="M 379.5,2489.5 C 392.171,2489.33 404.838,2489.5 417.5,2490C 460.759,2494.93 486.259,2518.76 494,2561.5C 498.186,2602.39 492.186,2641.72 476,2679.5C 460.348,2711.92 434.848,2731.75 399.5,2739C 372.115,2744.69 345.115,2743.36 318.5,2735C 295.688,2725.52 280.521,2709.02 273,2685.5C 262.9,2636.19 268.9,2588.86 291,2543.5C 305.319,2517.75 326.819,2501.25 355.5,2494C 363.58,2492.16 371.58,2490.66 379.5,2489.5 Z M 379.5,2537.5 C 389.557,2537.14 399.557,2537.64 409.5,2539C 425.263,2543.98 433.763,2554.82 435,2571.5C 436.813,2603.62 431.813,2634.62 420,2664.5C 407.778,2687.36 388.611,2697.2 362.5,2694C 344.282,2692.78 333.115,2683.28 329,2665.5C 325.652,2630.59 330.652,2596.92 344,2564.5C 351.693,2549.96 363.526,2540.96 379.5,2537.5 Z"/></g>
<g><path style="opacity:0.992" fill="#ee4222" d="M 869.5,2489.5 C 943.066,2483.23 980.399,2517.06 981.5,2591C 979.998,2608.52 978.331,2626.02 976.5,2643.5C 922.833,2643.5 869.167,2643.5 815.5,2643.5C 809.398,2678.22 823.898,2695.22 859,2694.5C 885.879,2694.65 906.713,2683.65 921.5,2661.5C 936.646,2667.58 951.646,2673.91 966.5,2680.5C 946.649,2716.11 916.316,2736.28 875.5,2741C 851.258,2744.28 827.592,2741.94 804.5,2734C 774.284,2719.44 758.117,2695.28 756,2661.5C 753.862,2626 759.195,2591.66 772,2558.5C 790.533,2515.8 823.033,2492.8 869.5,2489.5 Z M 874.5,2540.5 C 890.069,2538.01 903.235,2542.34 914,2553.5C 917.908,2559.22 920.242,2565.56 921,2572.5C 921.736,2580.54 921.569,2588.54 920.5,2596.5C 888.493,2596.83 856.493,2596.5 824.5,2595.5C 830.138,2582.22 837.305,2569.88 846,2558.5C 853.875,2549.77 863.375,2543.77 874.5,2540.5 Z"/></g>
<g><path style="opacity:0.988" fill="#ee4322" d="M 1551.5,2489.5 C 1586.95,2484.8 1612.12,2498.47 1627,2530.5C 1633,2549.79 1634.66,2569.46 1632,2589.5C 1624.73,2645.21 1617.23,2700.88 1609.5,2756.5C 1589.5,2756.5 1569.5,2756.5 1549.5,2756.5C 1556.62,2704.17 1563.78,2651.84 1571,2599.5C 1572.45,2587.2 1572.78,2574.86 1572,2562.5C 1568.73,2547.58 1559.4,2540.58 1544,2541.5C 1536.11,2541.69 1528.61,2543.52 1521.5,2547C 1509.59,2553.2 1498.09,2560.04 1487,2567.5C 1478.08,2630.45 1469.58,2693.45 1461.5,2756.5C 1441.5,2756.5 1421.5,2756.5 1401.5,2756.5C 1412.34,2673.8 1423.5,2591.13 1435,2508.5C 1451.59,2506.52 1468.43,2505.86 1485.5,2506.5C 1486.35,2511.89 1487.51,2517.22 1489,2522.5C 1507.15,2506.34 1527.98,2495.34 1551.5,2489.5 Z"/></g>
<g><path style="opacity:0.992" fill="#ee4222" d="M 2098.5,2489.5 C 2110.84,2489.33 2123.17,2489.5 2135.5,2490C 2169.99,2494.16 2192.83,2512.66 2204,2545.5C 2209.44,2564.13 2211.44,2583.13 2210,2602.5C 2208.61,2616.19 2207.11,2629.86 2205.5,2643.5C 2151.93,2643.17 2098.43,2643.5 2045,2644.5C 2044.33,2652.17 2044.33,2659.83 2045,2667.5C 2047.58,2682.42 2056.42,2690.92 2071.5,2693C 2105,2699.48 2131.5,2688.98 2151,2661.5C 2165.68,2667.5 2180.35,2673.5 2195,2679.5C 2195.67,2680.5 2195.67,2681.5 2195,2682.5C 2174.93,2717.15 2144.76,2736.65 2104.5,2741C 2081.38,2744.05 2058.71,2742.05 2036.5,2735C 2006.45,2722.12 1989.62,2699.29 1986,2666.5C 1982.85,2629.71 1987.85,2594.04 2001,2559.5C 2019.23,2516.45 2051.73,2493.12 2098.5,2489.5 Z M 2104.5,2540.5 C 2134.82,2537.49 2150.49,2551.16 2151.5,2581.5C 2150.55,2586.44 2150.22,2591.44 2150.5,2596.5C 2118.16,2596.67 2085.83,2596.5 2053.5,2596C 2060.28,2578.23 2070.61,2562.9 2084.5,2550C 2090.6,2545.45 2097.27,2542.28 2104.5,2540.5 Z"/></g>
<g><path style="opacity:0.988" fill="#ee4323" d="M 2399.5,2493.5 C 2399.5,2496.17 2399.5,2498.83 2399.5,2501.5C 2396.81,2515.98 2394.48,2530.65 2392.5,2545.5C 2363.43,2542.01 2336.6,2548.01 2312,2563.5C 2302.92,2627.81 2294.09,2692.14 2285.5,2756.5C 2265.5,2756.5 2245.5,2756.5 2225.5,2756.5C 2236.34,2673.8 2247.5,2591.13 2259,2508.5C 2275.59,2506.52 2292.43,2505.86 2309.5,2506.5C 2309.89,2511.08 2311.06,2515.42 2313,2519.5C 2324.7,2507.13 2338.54,2497.97 2354.5,2492C 2369.63,2488.43 2384.63,2488.93 2399.5,2493.5 Z"/></g>
<g><path style="opacity:0.989" fill="#ee4322" d="M 1269.5,2493.5 C 1297.88,2491.51 1324.21,2497.85 1348.5,2512.5C 1372.49,2506.87 1396.82,2504.87 1421.5,2506.5C 1416.5,2521.83 1411.5,2537.17 1406.5,2552.5C 1400.16,2552.67 1393.82,2552.5 1387.5,2552C 1381.84,2549.32 1376.17,2546.99 1370.5,2545C 1380.36,2576 1375.52,2604.5 1356,2630.5C 1337.27,2649.78 1314.44,2660.94 1287.5,2664C 1263.22,2667.18 1239.05,2666.35 1215,2661.5C 1206.61,2661.94 1203.28,2666.28 1205,2674.5C 1206.21,2676.05 1207.71,2677.22 1209.5,2678C 1243.8,2684.79 1278.13,2691.46 1312.5,2698C 1357.5,2707.84 1374,2735 1362,2779.5C 1354.51,2803 1339.34,2819.5 1316.5,2829C 1296.57,2836.79 1275.91,2841.12 1254.5,2842C 1222.54,2845.04 1191.54,2841.04 1161.5,2830C 1130.94,2815.05 1118.1,2790.55 1123,2756.5C 1127.95,2730.06 1141.79,2709.73 1164.5,2695.5C 1157.46,2685.82 1155.62,2675.15 1159,2663.5C 1163.44,2652.73 1170.94,2644.89 1181.5,2640C 1165.94,2616.76 1162.11,2591.6 1170,2564.5C 1178.82,2534.35 1197.98,2513.85 1227.5,2503C 1241.28,2498.22 1255.28,2495.05 1269.5,2493.5 Z M 1270.5,2536.5 C 1311.33,2535.53 1325.17,2554.53 1312,2593.5C 1304.87,2607.66 1293.37,2615.83 1277.5,2618C 1230.27,2622.38 1215.44,2602.54 1233,2558.5C 1242.09,2545.37 1254.59,2538.04 1270.5,2536.5 Z M 1200.5,2720.5 C 1227.75,2725.85 1255.09,2731.02 1282.5,2736C 1305.63,2740.33 1311.8,2753.16 1301,2774.5C 1296.67,2781.16 1290.84,2785.99 1283.5,2789C 1275.44,2792.1 1267.11,2794.1 1258.5,2795C 1245.83,2795.67 1233.17,2795.67 1220.5,2795C 1187.96,2793.39 1175.79,2776.89 1184,2745.5C 1188.01,2736.14 1193.51,2727.81 1200.5,2720.5 Z"/></g>
<g><path style="opacity:0.988" fill="#ee4322" d="M 1672.5,2506.5 C 1705.5,2506.5 1738.5,2506.5 1771.5,2506.5C 1762.55,2568.45 1753.89,2630.45 1745.5,2692.5C 1745.08,2698.68 1746.75,2704.18 1750.5,2709C 1758.19,2709.17 1765.85,2709.67 1773.5,2710.5C 1770.95,2725.79 1768.62,2741.13 1766.5,2756.5C 1754.5,2756.67 1742.5,2756.5 1730.5,2756C 1707.15,2754.75 1692.32,2742.92 1686,2720.5C 1683.31,2707.58 1682.98,2694.58 1685,2681.5C 1690.67,2642.83 1696.33,2604.17 1702,2565.5C 1702.32,2561.06 1703.48,2556.89 1705.5,2553C 1692.5,2552.5 1679.5,2552.33 1666.5,2552.5C 1668.17,2537.12 1670.17,2521.79 1672.5,2506.5 Z"/></g>
</svg>
