<?xml version="1.0" encoding="UTF-8"?>
<!DOCTYPE svg PUBLIC "-//W3C//DTD SVG 1.1//EN" "http://www.w3.org/Graphics/SVG/1.1/DTD/svg11.dtd">
<svg xmlns="http://www.w3.org/2000/svg" version="1.1" width="1869px" height="2048px" style="shape-rendering:geometricPrecision; text-rendering:geometricPrecision; image-rendering:optimizeQuality; fill-rule:evenodd; clip-rule:evenodd" xmlns:xlink="http://www.w3.org/1999/xlink">
<g><path style="opacity:0.995" fill="#4686b8" d="M 848.5,-0.5 C 861.5,-0.5 874.5,-0.5 887.5,-0.5C 837.341,58.4689 787.175,117.469 737,176.5C 735.223,178.79 733.056,180.457 730.5,181.5C 707.455,140.319 673.122,126.152 627.5,139C 589.822,156.838 572.655,186.672 576,228.5C 582.662,263.322 602.829,285.989 636.5,296.5C 633.308,298.172 630.475,300.505 628,303.5C 597.623,339.039 567.456,374.706 537.5,410.5C 513.5,410.5 489.5,410.5 465.5,410.5C 465.5,356.833 465.5,303.167 465.5,249.5C 466.33,260.326 466.83,271.326 467,282.5C 542.71,193.627 618.21,104.627 693.5,15.5C 744.936,6.9234 796.603,1.59006 848.5,-0.5 Z"/></g>
<g><path style="opacity:0.997" fill="#4280b1" d="M 887.5,-0.5 C 908.5,-0.5 929.5,-0.5 950.5,-0.5C 991.656,1.34635 1032.66,5.01301 1073.5,10.5C 961.085,143.755 848.085,276.588 734.5,409C 744.009,409.17 753.342,409.67 762.5,410.5C 687.5,410.5 612.5,410.5 537.5,410.5C 567.456,374.706 597.623,339.039 628,303.5C 630.475,300.505 633.308,298.172 636.5,296.5C 677.493,303.582 708.327,289.249 729,253.5C 739.756,229.719 740.256,205.719 730.5,181.5C 733.056,180.457 735.223,178.79 737,176.5C 787.175,117.469 837.341,58.4689 887.5,-0.5 Z"/></g>
<g><path style="opacity:1" fill="#3f7cad" d="M 1073.5,10.5 C 1088.87,12.2194 1104.2,14.2194 1119.5,16.5C 1009.73,146.995 899.227,276.995 788,406.5C 787.626,407.416 787.126,408.25 786.5,409C 800.006,409.169 813.34,409.669 826.5,410.5C 805.167,410.5 783.833,410.5 762.5,410.5C 753.342,409.67 744.009,409.17 734.5,409C 848.085,276.588 961.085,143.755 1073.5,10.5 Z"/></g>
<g><path style="opacity:0.998" fill="#3d79aa" d="M 1119.5,16.5 C 1152.15,22.3839 1183.15,33.0505 1212.5,48.5C 1212.41,49.4959 1212.75,50.3292 1213.5,51C 1109.64,173.025 1005.64,294.858 901.5,416.5C 901.5,414.5 901.5,412.5 901.5,410.5C 876.5,410.5 851.5,410.5 826.5,410.5C 813.34,409.669 800.006,409.169 786.5,409C 787.126,408.25 787.626,407.416 788,406.5C 899.227,276.995 1009.73,146.995 1119.5,16.5 Z"/></g>
<g><path style="opacity:0.998" fill="#498abd" d="M 693.5,15.5 C 618.21,104.627 542.71,193.627 467,282.5C 466.83,271.326 466.33,260.326 465.5,249.5C 464.601,218.475 467.435,187.809 474,157.5C 484.221,117.306 506.721,86.1398 541.5,64C 577.363,43.4876 615.696,29.4876 656.5,22C 668.769,19.3997 681.103,17.233 693.5,15.5 Z"/></g>
<g><path style="opacity:0.999" fill="#3b77a7" d="M 1212.5,48.5 C 1223.38,54.4326 1233.71,61.0992 1243.5,68.5C 1241.2,69.206 1239.03,70.8727 1237,73.5C 882.042,490.794 526.708,907.794 171,1324.5C 169.579,1326.4 168.412,1328.4 167.5,1330.5C 157.28,1325.26 147.614,1319.26 138.5,1312.5C 378.944,1030.46 619.277,748.291 859.5,466C 869.675,465.83 879.675,465.33 889.5,464.5C 893.5,464.5 897.5,464.5 901.5,464.5C 901.5,448.5 901.5,432.5 901.5,416.5C 1005.64,294.858 1109.64,173.025 1213.5,51C 1212.75,50.3292 1212.41,49.4959 1212.5,48.5 Z"/></g>
<g><path style="opacity:0.999" fill="#3975a5" d="M 1243.5,68.5 C 1260.39,80.3825 1275.39,94.3825 1288.5,110.5C 1068.2,369.142 847.863,627.808 627.5,886.5C 530.663,912.501 463.83,972.167 427,1065.5C 417.202,1092.99 412.368,1121.32 412.5,1150.5C 411.969,1166.09 411.136,1181.75 410,1197.5C 366.29,1248.37 322.79,1299.37 279.5,1350.5C 240.457,1352.96 203.123,1346.29 167.5,1330.5C 168.412,1328.4 169.579,1326.4 171,1324.5C 526.708,907.794 882.042,490.794 1237,73.5C 1239.03,70.8727 1241.2,69.206 1243.5,68.5 Z"/></g>
<g><path style="opacity:0.999" fill="#3773a3" d="M 1288.5,110.5 C 1297,120.342 1304.34,131.009 1310.5,142.5C 1309.76,142.369 1309.09,142.536 1308.5,143C 1099.31,388.02 890.313,633.186 681.5,878.5C 690.991,879.167 700.325,879.833 709.5,880.5C 681.943,879.659 654.609,881.659 627.5,886.5C 847.863,627.808 1068.2,369.142 1288.5,110.5 Z"/></g>
<g><path style="opacity:0.999" fill="#3671a1" d="M 1310.5,142.5 C 1319.51,157.842 1326.17,174.175 1330.5,191.5C 1328.2,193.294 1326.04,195.294 1324,197.5C 1130.87,424.961 937.375,652.127 743.5,879C 754.008,879.17 764.341,879.67 774.5,880.5C 752.833,880.5 731.167,880.5 709.5,880.5C 700.325,879.833 690.991,879.167 681.5,878.5C 890.313,633.186 1099.31,388.02 1308.5,143C 1309.09,142.536 1309.76,142.369 1310.5,142.5 Z"/></g>
<g><path style="opacity:0.999" fill="#346e9e" d="M 1330.5,191.5 C 1334.14,204.21 1336.31,217.21 1337,230.5C 1337.5,246.497 1337.67,262.497 1337.5,278.5C 1336.96,290.755 1336.13,303.088 1335,315.5C 1174.02,503.493 1013.52,691.826 853.5,880.5C 827.167,880.5 800.833,880.5 774.5,880.5C 764.341,879.67 754.008,879.17 743.5,879C 937.375,652.127 1130.87,424.961 1324,197.5C 1326.04,195.294 1328.2,193.294 1330.5,191.5 Z"/></g>
<g><path style="opacity:0.998" fill="#326b9b" d="M 1337.5,278.5 C 1337.5,321.833 1337.5,365.167 1337.5,408.5C 1203.15,565.514 1069.15,722.848 935.5,880.5C 908.167,880.5 880.833,880.5 853.5,880.5C 1013.52,691.826 1174.02,503.493 1335,315.5C 1336.13,303.088 1336.96,290.755 1337.5,278.5 Z"/></g>
<g><path style="opacity:0.997" fill="#306998" d="M 1337.5,408.5 C 1337.67,496.501 1337.5,584.501 1337,672.5C 1330.48,748.422 1295.64,807.256 1232.5,849C 1202.92,866.75 1170.92,877.083 1136.5,880C 1069.5,880.5 1002.5,880.667 935.5,880.5C 1069.15,722.848 1203.15,565.514 1337.5,408.5 Z"/></g>
<g><path style="opacity:0.998" fill="#4685b8" d="M 311.5,464.5 C 385.167,464.5 458.833,464.5 532.5,464.5C 518.328,465.167 503.994,465.833 489.5,466.5C 330.521,653.314 171.354,839.98 12,1026.5C 11.2432,1028.31 10.4098,1029.98 9.5,1031.5C 4.98127,1002.49 1.64794,973.493 -0.5,944.5C -0.5,919.833 -0.5,895.167 -0.5,870.5C 0.822253,855.98 2.15559,841.313 3.5,826.5C 105.762,705.565 208.429,584.898 311.5,464.5 Z"/></g>
<g><path style="opacity:0.998" fill="#4280b1" d="M 532.5,464.5 C 603.167,464.5 673.833,464.5 744.5,464.5C 742.393,465.468 740.059,465.802 737.5,465.5C 720.497,465.333 703.497,465.5 686.5,466C 477.333,711.167 268.167,956.333 59,1201.5C 57.4412,1203.22 56.6079,1205.22 56.5,1207.5C 47.3509,1187.9 39.8509,1167.56 34,1146.5C 24.2324,1108.49 16.0657,1070.16 9.5,1031.5C 10.4098,1029.98 11.2432,1028.31 12,1026.5C 171.354,839.98 330.521,653.314 489.5,466.5C 503.994,465.833 518.328,465.167 532.5,464.5 Z"/></g>
<g><path style="opacity:0.999" fill="#3c79aa" d="M 744.5,464.5 C 792.833,464.5 841.167,464.5 889.5,464.5C 879.675,465.33 869.675,465.83 859.5,466C 619.277,748.291 378.944,1030.46 138.5,1312.5C 112.221,1294.23 91.2212,1271.23 75.5,1243.5C 296.542,984.461 517.208,725.127 737.5,465.5C 740.059,465.802 742.393,465.468 744.5,464.5 Z"/></g>
<g><path style="opacity:0.999" fill="#ffe772" d="M 1652.5,489.5 C 1650.22,489.608 1648.22,490.441 1646.5,492C 1561.97,552.694 1477.31,613.194 1392.5,673.5C 1391.82,673.137 1391.15,672.804 1390.5,672.5C 1390.5,603.167 1390.5,533.833 1390.5,464.5C 1453.18,464.062 1515.85,464.562 1578.5,466C 1605.12,468.153 1629.79,475.987 1652.5,489.5 Z"/></g>
<g><path style="opacity:0.998" fill="#4a8abd" d="M 311.5,464.5 C 208.429,584.898 105.762,705.565 3.5,826.5C 10.3716,769.975 21.5383,714.309 37,659.5C 66.8942,566.939 128.061,505.772 220.5,476C 250.274,467.822 280.607,463.989 311.5,464.5 Z"/></g>
<g><path style="opacity:1" fill="#3f7cad" d="M 737.5,465.5 C 517.208,725.127 296.542,984.461 75.5,1243.5C 67.6269,1232.43 61.2936,1220.43 56.5,1207.5C 56.6079,1205.22 57.4412,1203.22 59,1201.5C 268.167,956.333 477.333,711.167 686.5,466C 703.497,465.5 720.497,465.333 737.5,465.5 Z"/></g>
<g><path style="opacity:0.998" fill="#ffe56d" d="M 1652.5,489.5 C 1672.19,500.517 1689.19,514.85 1703.5,532.5C 1591.04,613.9 1478.04,694.567 1364.5,774.5C 1379.74,742.21 1388.41,708.21 1390.5,672.5C 1391.15,672.804 1391.82,673.137 1392.5,673.5C 1477.31,613.194 1561.97,552.694 1646.5,492C 1648.22,490.441 1650.22,489.608 1652.5,489.5 Z"/></g>
<g><path style="opacity:0.998" fill="#ffe366" d="M 1703.5,532.5 C 1720.43,552.66 1734.09,574.993 1744.5,599.5C 1318.61,903.368 892.775,1207.37 467,1511.5C 466.826,1516.35 466.326,1521.02 465.5,1525.5C 465.5,1489.17 465.5,1452.83 465.5,1416.5C 691.38,1255.73 917.047,1094.73 1142.5,933.5C 1229.53,922.09 1297.36,880.09 1346,807.5C 1352.69,796.796 1358.85,785.796 1364.5,774.5C 1478.04,694.567 1591.04,613.9 1703.5,532.5 Z"/></g>
<g><path style="opacity:1" fill="#ffe160" d="M 1744.5,599.5 C 1753.55,620.654 1761.22,642.321 1767.5,664.5C 1335.32,973.169 902.991,1281.67 470.5,1590C 468.93,1591.4 467.596,1592.9 466.5,1594.5C 465.588,1571.52 465.254,1548.52 465.5,1525.5C 466.326,1521.02 466.826,1516.35 467,1511.5C 892.775,1207.37 1318.61,903.368 1744.5,599.5 Z"/></g>
<g><path style="opacity:0.999" fill="#ffdf5a" d="M 1767.5,664.5 C 1773.64,687.405 1779.31,710.405 1784.5,733.5C 1497.01,939.412 1209.34,1145.08 921.5,1350.5C 915.167,1350.5 908.833,1350.5 902.5,1350.5C 902.5,1354.83 902.5,1359.17 902.5,1363.5C 764.619,1462.59 626.285,1560.93 487.5,1658.5C 476.21,1638.71 469.21,1617.38 466.5,1594.5C 467.596,1592.9 468.93,1591.4 470.5,1590C 902.991,1281.67 1335.32,973.169 1767.5,664.5 Z"/></g>
<g><path style="opacity:0.999" fill="#ffdd54" d="M 1784.5,733.5 C 1789.61,758.027 1793.94,782.694 1797.5,807.5C 1544.4,987.423 1291.4,1167.59 1038.5,1348C 1038.17,1348.33 1037.83,1348.67 1037.5,1349C 1043.68,1349.17 1049.68,1349.67 1055.5,1350.5C 1010.83,1350.5 966.167,1350.5 921.5,1350.5C 1209.34,1145.08 1497.01,939.412 1784.5,733.5 Z"/></g>
<g><path style="opacity:1" fill="#ffdb4f" d="M 1797.5,807.5 C 1800.32,825.393 1802.32,843.393 1803.5,861.5C 1575.4,1023.76 1347.4,1186.26 1119.5,1349C 1101,1349.17 1082.66,1349.67 1064.5,1350.5C 1061.5,1350.5 1058.5,1350.5 1055.5,1350.5C 1049.68,1349.67 1043.68,1349.17 1037.5,1349C 1037.83,1348.67 1038.17,1348.33 1038.5,1348C 1291.4,1167.59 1544.4,987.423 1797.5,807.5 Z"/></g>
<g><path style="opacity:0.998" fill="#ffda4b" d="M 1803.5,861.5 C 1804.97,872.731 1805.64,884.065 1805.5,895.5C 1593.5,1047.17 1381.5,1198.83 1169.5,1350.5C 1134.5,1350.5 1099.5,1350.5 1064.5,1350.5C 1082.66,1349.67 1101,1349.17 1119.5,1349C 1347.4,1186.26 1575.4,1023.76 1803.5,861.5 Z"/></g>
<g><path style="opacity:0.999" fill="#ffd847" d="M 1805.5,895.5 C 1806.85,923.36 1806.52,951.36 1804.5,979.5C 1631.21,1102.16 1458.21,1225.32 1285.5,1349C 1278.65,1349.17 1271.99,1349.67 1265.5,1350.5C 1233.5,1350.5 1201.5,1350.5 1169.5,1350.5C 1381.5,1198.83 1593.5,1047.17 1805.5,895.5 Z"/></g>
<g><path style="opacity:0.998" fill="#ffe56d" d="M 1142.5,933.5 C 917.047,1094.73 691.38,1255.73 465.5,1416.5C 465.5,1384.83 465.5,1353.17 465.5,1321.5C 466.325,1325.65 466.825,1329.98 467,1334.5C 652.569,1201.3 838.402,1068.47 1024.5,936C 1031.68,935.829 1038.68,935.329 1045.5,934.5C 1077.85,934.789 1110.18,934.456 1142.5,933.5 Z"/></g>
<g><path style="opacity:0.996" fill="#ffe772" d="M 1045.5,934.5 C 1038.68,935.329 1031.68,935.829 1024.5,936C 838.402,1068.47 652.569,1201.3 467,1334.5C 466.825,1329.98 466.325,1325.65 465.5,1321.5C 465.333,1261.5 465.5,1201.5 466,1141.5C 474.167,1062.62 512.001,1002.78 579.5,962C 608.151,946.17 638.818,937.17 671.5,935C 796.166,934.5 920.833,934.333 1045.5,934.5 Z"/></g>
<g><path style="opacity:0.998" fill="#ffd641" d="M 1804.5,979.5 C 1801.87,1010.59 1796.87,1041.26 1789.5,1071.5C 1658.86,1164.14 1528.53,1257.14 1398.5,1350.5C 1354.17,1350.5 1309.83,1350.5 1265.5,1350.5C 1271.99,1349.67 1278.65,1349.17 1285.5,1349C 1458.21,1225.32 1631.21,1102.16 1804.5,979.5 Z"/></g>
<g><path style="opacity:0.995" fill="#ffd43b" d="M 1789.5,1071.5 C 1775.65,1128.21 1756.15,1182.87 1731,1235.5C 1715.5,1267.98 1693.67,1295.48 1665.5,1318C 1640.74,1335.81 1613.07,1346.15 1582.5,1349C 1521.19,1350.46 1459.85,1350.96 1398.5,1350.5C 1528.53,1257.14 1658.86,1164.14 1789.5,1071.5 Z"/></g>
<g><path style="opacity:0.978" fill="#3671a1" d="M 412.5,1150.5 C 412.5,1217.17 412.5,1283.83 412.5,1350.5C 368.167,1350.5 323.833,1350.5 279.5,1350.5C 322.79,1299.37 366.29,1248.37 410,1197.5C 411.136,1181.75 411.969,1166.09 412.5,1150.5 Z"/></g>
<g><path style="opacity:0.998" fill="#ffdd54" d="M 902.5,1363.5 C 902.5,1377.5 902.5,1391.5 902.5,1405.5C 920.833,1405.5 939.167,1405.5 957.5,1405.5C 814.833,1507.83 672.167,1610.17 529.5,1712.5C 512.068,1697.08 498.068,1679.08 487.5,1658.5C 626.285,1560.93 764.619,1462.59 902.5,1363.5 Z"/></g>
<g><path style="opacity:0.999" fill="#ffdb4f" d="M 957.5,1405.5 C 984.833,1405.5 1012.17,1405.5 1039.5,1405.5C 882.676,1518.08 725.676,1630.41 568.5,1742.5C 554.335,1734 541.335,1724 529.5,1712.5C 672.167,1610.17 814.833,1507.83 957.5,1405.5 Z"/></g>
<g><path style="opacity:1" fill="#ffda4b" d="M 1039.5,1405.5 C 1056.83,1405.5 1074.17,1405.5 1091.5,1405.5C 929.347,1521.47 767.014,1637.3 604.5,1753C 601.638,1754.74 599.304,1756.9 597.5,1759.5C 587.305,1754.58 577.638,1748.91 568.5,1742.5C 725.676,1630.41 882.676,1518.08 1039.5,1405.5 Z"/></g>
<g><path style="opacity:0.999" fill="#ffd847" d="M 1091.5,1405.5 C 1129.5,1405.5 1167.5,1405.5 1205.5,1405.5C 1027.59,1533.47 849.253,1660.97 670.5,1788C 671.056,1788.38 671.389,1788.88 671.5,1789.5C 645.933,1781.72 621.266,1771.72 597.5,1759.5C 599.304,1756.9 601.638,1754.74 604.5,1753C 767.014,1637.3 929.347,1521.47 1091.5,1405.5 Z"/></g>
<g><path style="opacity:0.998" fill="#ffd641" d="M 1205.5,1405.5 C 1243.83,1405.5 1282.17,1405.5 1320.5,1405.5C 1267.76,1443.58 1214.76,1481.25 1161.5,1518.5C 1119.32,1513.34 1089.15,1530.01 1071,1568.5C 1068.58,1575.14 1066.75,1581.81 1065.5,1588.5C 961.167,1662.5 856.833,1736.5 752.5,1810.5C 724.955,1805.2 697.955,1798.2 671.5,1789.5C 671.389,1788.88 671.056,1788.38 670.5,1788C 849.253,1660.97 1027.59,1533.47 1205.5,1405.5 Z"/></g>
<g><path style="opacity:0.996" fill="#ffd43b" d="M 1320.5,1405.5 C 1326.17,1405.5 1331.83,1405.5 1337.5,1405.5C 1337.67,1465.5 1337.5,1525.5 1337,1585.5C 1332.86,1636.6 1312.03,1679.44 1274.5,1714C 1238.45,1744.71 1197.78,1767.71 1152.5,1783C 1060.48,1814.89 965.816,1829.23 868.5,1826C 829.241,1824.22 790.574,1819.06 752.5,1810.5C 856.833,1736.5 961.167,1662.5 1065.5,1588.5C 1063.34,1629.04 1080.34,1658.21 1116.5,1676C 1162.21,1689.72 1196.71,1675.88 1220,1634.5C 1235.06,1595.58 1227.23,1562.08 1196.5,1534C 1186.04,1526.11 1174.38,1520.94 1161.5,1518.5C 1214.76,1481.25 1267.76,1443.58 1320.5,1405.5 Z"/></g>
<g><path style="opacity:0.004" fill="#000000" d="M 1382.5,2047.5 C 1380.5,2047.5 1378.5,2047.5 1376.5,2047.5C 1369.76,2041.62 1362.43,2036.45 1354.5,2032C 1327.93,2019.03 1300.27,2009.03 1271.5,2002C 1190.89,1983.21 1109.22,1971.88 1026.5,1968C 903.462,1960.81 780.795,1964.81 658.5,1980C 602.988,1986.77 548.654,1998.77 495.5,2016C 487.109,2018.84 479.109,2022.34 471.5,2026.5C 466.914,2027.46 462.914,2029.46 459.5,2032.5C 450.971,2036.26 443.305,2041.26 436.5,2047.5C 434.5,2047.5 432.5,2047.5 430.5,2047.5C 436.568,2041.95 443.235,2037.12 450.5,2033C 474.84,2020.77 500.174,2011.11 526.5,2004C 600.089,1985.53 674.756,1973.87 750.5,1969C 876.015,1960.04 1001.35,1962.04 1126.5,1975C 1176.73,1980.45 1226.4,1989.11 1275.5,2001C 1306.51,2008.45 1336.18,2019.45 1364.5,2034C 1371.1,2037.79 1377.1,2042.29 1382.5,2047.5 Z"/></g>
<g><path style="opacity:0.008" fill="#999999" d="M 1376.5,2047.5 C 1373.17,2047.5 1369.83,2047.5 1366.5,2047.5C 1350.01,2034.58 1331.68,2024.75 1311.5,2018C 1256.47,1999.83 1200.13,1987.49 1142.5,1981C 987.874,1962.08 833.207,1961.75 678.5,1980C 619.253,1986.58 561.253,1998.92 504.5,2017C 483.209,2023.81 463.875,2033.98 446.5,2047.5C 443.167,2047.5 439.833,2047.5 436.5,2047.5C 443.305,2041.26 450.971,2036.26 459.5,2032.5C 463.818,2031.01 467.818,2029.01 471.5,2026.5C 479.109,2022.34 487.109,2018.84 495.5,2016C 548.654,1998.77 602.988,1986.77 658.5,1980C 780.795,1964.81 903.462,1960.81 1026.5,1968C 1109.22,1971.88 1190.89,1983.21 1271.5,2002C 1300.27,2009.03 1327.93,2019.03 1354.5,2032C 1362.43,2036.45 1369.76,2041.62 1376.5,2047.5 Z"/></g>
<g><path style="opacity:0.012" fill="#545554" d="M 1366.5,2047.5 C 1364.5,2047.5 1362.5,2047.5 1360.5,2047.5C 1355.3,2042.81 1349.63,2038.64 1343.5,2035C 1318.89,2022.57 1293.22,2012.91 1266.5,2006C 1199.1,1989.47 1130.76,1978.8 1061.5,1974C 962.524,1967.07 863.524,1966.73 764.5,1973C 699.164,1977.24 634.497,1986.24 570.5,2000C 536.042,2007.19 503.042,2018.53 471.5,2034C 464.43,2037.59 458.097,2042.09 452.5,2047.5C 450.5,2047.5 448.5,2047.5 446.5,2047.5C 463.875,2033.98 483.209,2023.81 504.5,2017C 561.253,1998.92 619.253,1986.58 678.5,1980C 833.207,1961.75 987.874,1962.08 1142.5,1981C 1200.13,1987.49 1256.47,1999.83 1311.5,2018C 1331.68,2024.75 1350.01,2034.58 1366.5,2047.5 Z"/></g>
<g><path style="opacity:0.016" fill="#858585" d="M 1360.5,2047.5 C 1355.5,2047.5 1350.5,2047.5 1345.5,2047.5C 1340.09,2042.62 1334.09,2038.45 1327.5,2035C 1296.56,2020.02 1264.22,2009.02 1230.5,2002C 1150.02,1985.24 1068.69,1975.58 986.5,1973C 866.141,1967.55 746.475,1974.21 627.5,1993C 592.877,1998.82 558.877,2007.16 525.5,2018C 512.508,2022.55 499.841,2027.89 487.5,2034C 480.249,2037.78 473.582,2042.28 467.5,2047.5C 462.5,2047.5 457.5,2047.5 452.5,2047.5C 458.097,2042.09 464.43,2037.59 471.5,2034C 503.042,2018.53 536.042,2007.19 570.5,2000C 634.497,1986.24 699.164,1977.24 764.5,1973C 863.524,1966.73 962.524,1967.07 1061.5,1974C 1130.76,1978.8 1199.1,1989.47 1266.5,2006C 1293.22,2012.91 1318.89,2022.57 1343.5,2035C 1349.63,2038.64 1355.3,2042.81 1360.5,2047.5 Z"/></g>
<g><path style="opacity:0.02" fill="#989998" d="M 1345.5,2047.5 C 1342.83,2047.5 1340.17,2047.5 1337.5,2047.5C 1329.07,2040.44 1319.74,2034.61 1309.5,2030C 1265.66,2012.37 1220.32,2000.04 1173.5,1993C 1064.78,1976.43 955.444,1970.1 845.5,1974C 757.548,1975.88 670.548,1985.88 584.5,2004C 552.914,2010.75 522.581,2021.08 493.5,2035C 486.91,2038.45 480.91,2042.62 475.5,2047.5C 472.833,2047.5 470.167,2047.5 467.5,2047.5C 473.582,2042.28 480.249,2037.78 487.5,2034C 499.841,2027.89 512.508,2022.55 525.5,2018C 558.877,2007.16 592.877,1998.82 627.5,1993C 746.475,1974.21 866.141,1967.55 986.5,1973C 1068.69,1975.58 1150.02,1985.24 1230.5,2002C 1264.22,2009.02 1296.56,2020.02 1327.5,2035C 1334.09,2038.45 1340.09,2042.62 1345.5,2047.5 Z"/></g>
<g><path style="opacity:0.024" fill="#7f807f" d="M 1337.5,2047.5 C 1335.17,2047.5 1332.83,2047.5 1330.5,2047.5C 1316.56,2037.03 1301.23,2028.86 1284.5,2023C 1230.47,2005.13 1175.13,1993.13 1118.5,1987C 979.873,1970.74 841.207,1970.41 702.5,1986C 644.211,1991.99 587.211,2003.99 531.5,2022C 513.657,2027.92 497.324,2036.42 482.5,2047.5C 480.167,2047.5 477.833,2047.5 475.5,2047.5C 480.91,2042.62 486.91,2038.45 493.5,2035C 522.581,2021.08 552.914,2010.75 584.5,2004C 670.548,1985.88 757.548,1975.88 845.5,1974C 955.444,1970.1 1064.78,1976.43 1173.5,1993C 1220.32,2000.04 1265.66,2012.37 1309.5,2030C 1319.74,2034.61 1329.07,2040.44 1337.5,2047.5 Z"/></g>
<g><path style="opacity:0.027" fill="#939393" d="M 1330.5,2047.5 C 1327.5,2047.5 1324.5,2047.5 1321.5,2047.5C 1307.34,2036.75 1291.68,2028.59 1274.5,2023C 1217.8,2004.86 1159.8,1992.86 1100.5,1987C 947.377,1970.29 794.711,1973.62 642.5,1997C 601.668,2003.46 562.002,2014.12 523.5,2029C 511.952,2033.93 501.286,2040.1 491.5,2047.5C 488.5,2047.5 485.5,2047.5 482.5,2047.5C 497.324,2036.42 513.657,2027.92 531.5,2022C 587.211,2003.99 644.211,1991.99 702.5,1986C 841.207,1970.41 979.873,1970.74 1118.5,1987C 1175.13,1993.13 1230.47,2005.13 1284.5,2023C 1301.23,2028.86 1316.56,2037.03 1330.5,2047.5 Z"/></g>
<g><path style="opacity:0.031" fill="#7f7f7f" d="M 1321.5,2047.5 C 1317.17,2047.5 1312.83,2047.5 1308.5,2047.5C 1301.06,2041.94 1293.06,2037.11 1284.5,2033C 1244.88,2016.84 1203.88,2005.51 1161.5,1999C 1052.12,1981.98 942.116,1975.98 831.5,1981C 754.302,1983.39 677.968,1992.73 602.5,2009C 576.332,2014.87 550.998,2023.21 526.5,2034C 518.601,2037.77 511.268,2042.27 504.5,2047.5C 500.167,2047.5 495.833,2047.5 491.5,2047.5C 501.286,2040.1 511.952,2033.93 523.5,2029C 562.002,2014.12 601.668,2003.46 642.5,1997C 794.711,1973.62 947.377,1970.29 1100.5,1987C 1159.8,1992.86 1217.8,2004.86 1274.5,2023C 1291.68,2028.59 1307.34,2036.75 1321.5,2047.5 Z"/></g>
<g><path style="opacity:0.035" fill="#8d8e8d" d="M 1308.5,2047.5 C 1306.17,2047.5 1303.83,2047.5 1301.5,2047.5C 1293.22,2041.35 1284.22,2036.18 1274.5,2032C 1237.97,2017.6 1200.31,2007.27 1161.5,2001C 1057.81,1984.45 953.473,1978.12 848.5,1982C 770.387,1983.81 693.054,1992.48 616.5,2008C 589.04,2013.86 562.373,2022.2 536.5,2033C 527.803,2036.9 519.803,2041.74 512.5,2047.5C 509.833,2047.5 507.167,2047.5 504.5,2047.5C 511.268,2042.27 518.601,2037.77 526.5,2034C 550.998,2023.21 576.332,2014.87 602.5,2009C 677.968,1992.73 754.302,1983.39 831.5,1981C 942.116,1975.98 1052.12,1981.98 1161.5,1999C 1203.88,2005.51 1244.88,2016.84 1284.5,2033C 1293.06,2037.11 1301.06,2041.94 1308.5,2047.5 Z"/></g>
<g><path style="opacity:0.039" fill="#7f807f" d="M 1301.5,2047.5 C 1299.17,2047.5 1296.83,2047.5 1294.5,2047.5C 1274.83,2034.65 1253.5,2025.15 1230.5,2019C 1164.93,2001.63 1098.26,1990.97 1030.5,1987C 923.61,1979.3 816.944,1981.63 710.5,1994C 659.743,1999.68 610.076,2010.35 561.5,2026C 545.99,2031.09 531.657,2038.25 518.5,2047.5C 516.5,2047.5 514.5,2047.5 512.5,2047.5C 519.803,2041.74 527.803,2036.9 536.5,2033C 562.373,2022.2 589.04,2013.86 616.5,2008C 693.054,1992.48 770.387,1983.81 848.5,1982C 953.473,1978.12 1057.81,1984.45 1161.5,2001C 1200.31,2007.27 1237.97,2017.6 1274.5,2032C 1284.22,2036.18 1293.22,2041.35 1301.5,2047.5 Z"/></g>
<g><path style="opacity:0.043" fill="#898989" d="M 1294.5,2047.5 C 1289.83,2047.5 1285.17,2047.5 1280.5,2047.5C 1262.83,2036.34 1243.83,2027.84 1223.5,2022C 1159.64,2004.54 1094.64,1993.88 1028.5,1990C 911.719,1981.35 795.385,1985.35 679.5,2002C 636.513,2008.16 594.847,2019.16 554.5,2035C 546.775,2038.19 539.775,2042.35 533.5,2047.5C 528.5,2047.5 523.5,2047.5 518.5,2047.5C 531.657,2038.25 545.99,2031.09 561.5,2026C 610.076,2010.35 659.743,1999.68 710.5,1994C 816.944,1981.63 923.61,1979.3 1030.5,1987C 1098.26,1990.97 1164.93,2001.63 1230.5,2019C 1253.5,2025.15 1274.83,2034.65 1294.5,2047.5 Z"/></g>
<g><path style="opacity:0.047" fill="#949594" d="M 1280.5,2047.5 C 1277.83,2047.5 1275.17,2047.5 1272.5,2047.5C 1252.36,2035.11 1230.69,2025.94 1207.5,2020C 1145.1,2004.28 1081.77,1994.61 1017.5,1991C 908.778,1983.52 800.444,1987.19 692.5,2002C 647.086,2008.02 603.086,2019.35 560.5,2036C 553.407,2039.3 546.74,2043.13 540.5,2047.5C 538.167,2047.5 535.833,2047.5 533.5,2047.5C 539.775,2042.35 546.775,2038.19 554.5,2035C 594.847,2019.16 636.513,2008.16 679.5,2002C 795.385,1985.35 911.719,1981.35 1028.5,1990C 1094.64,1993.88 1159.64,2004.54 1223.5,2022C 1243.83,2027.84 1262.83,2036.34 1280.5,2047.5 Z"/></g>
<g><path style="opacity:0.051" fill="#888988" d="M 1272.5,2047.5 C 1270.5,2047.5 1268.5,2047.5 1266.5,2047.5C 1249.12,2036.75 1230.45,2028.58 1210.5,2023C 1150.19,2006.86 1088.86,1996.86 1026.5,1993C 911.71,1984.33 797.377,1988.33 683.5,2005C 645.088,2010.6 607.755,2020.27 571.5,2034C 562.786,2038.02 554.453,2042.52 546.5,2047.5C 544.5,2047.5 542.5,2047.5 540.5,2047.5C 546.74,2043.13 553.407,2039.3 560.5,2036C 603.086,2019.35 647.086,2008.02 692.5,2002C 800.444,1987.19 908.778,1983.52 1017.5,1991C 1081.77,1994.61 1145.1,2004.28 1207.5,2020C 1230.69,2025.94 1252.36,2035.11 1272.5,2047.5 Z"/></g>
<g><path style="opacity:0.055" fill="#949494" d="M 1266.5,2047.5 C 1262.83,2047.5 1259.17,2047.5 1255.5,2047.5C 1239.71,2037.61 1222.71,2030.11 1204.5,2025C 1144.22,2008.67 1082.89,1998.67 1020.5,1995C 911.432,1986.98 802.766,1990.64 694.5,2006C 655.437,2011.6 617.437,2021.27 580.5,2035C 572.163,2038.16 564.497,2042.33 557.5,2047.5C 553.833,2047.5 550.167,2047.5 546.5,2047.5C 554.453,2042.52 562.786,2038.02 571.5,2034C 607.755,2020.27 645.088,2010.6 683.5,2005C 797.377,1988.33 911.71,1984.33 1026.5,1993C 1088.86,1996.86 1150.19,2006.86 1210.5,2023C 1230.45,2028.58 1249.12,2036.75 1266.5,2047.5 Z"/></g>
<g><path style="opacity:0.063" fill="#8c8c8c" d="M 1255.5,2047.5 C 1243.5,2047.5 1231.5,2047.5 1219.5,2047.5C 1206.62,2040.07 1192.95,2034.23 1178.5,2030C 1121.84,2014.62 1064.17,2005.29 1005.5,2002C 908.808,1995.23 812.475,1998.57 716.5,2012C 679.048,2017.11 642.714,2026.45 607.5,2040C 602.613,2042.27 597.946,2044.77 593.5,2047.5C 581.5,2047.5 569.5,2047.5 557.5,2047.5C 564.497,2042.33 572.163,2038.16 580.5,2035C 617.437,2021.27 655.437,2011.6 694.5,2006C 802.766,1990.64 911.432,1986.98 1020.5,1995C 1082.89,1998.67 1144.22,2008.67 1204.5,2025C 1222.71,2030.11 1239.71,2037.61 1255.5,2047.5 Z"/></g>
<g><path style="opacity:0.086" fill="#949494" d="M 1219.5,2047.5 C 1204.5,2047.5 1189.5,2047.5 1174.5,2047.5C 1161.11,2040.99 1147.11,2035.82 1132.5,2032C 1081.23,2019.59 1029.23,2012.26 976.5,2010C 896.818,2005.35 817.485,2008.68 738.5,2020C 709.137,2024.17 680.471,2031.17 652.5,2041C 647.623,2042.94 642.956,2045.11 638.5,2047.5C 623.5,2047.5 608.5,2047.5 593.5,2047.5C 597.946,2044.77 602.613,2042.27 607.5,2040C 642.714,2026.45 679.048,2017.11 716.5,2012C 812.475,1998.57 908.808,1995.23 1005.5,2002C 1064.17,2005.29 1121.84,2014.62 1178.5,2030C 1192.95,2034.23 1206.62,2040.07 1219.5,2047.5 Z"/></g>
<g><path style="opacity:0.108" fill="#9a9a9a" d="M 1174.5,2047.5 C 1145.17,2047.5 1115.83,2047.5 1086.5,2047.5C 1060.56,2039.14 1033.89,2033.64 1006.5,2031C 924.488,2021.84 842.821,2024.17 761.5,2038C 749.502,2040.41 737.835,2043.58 726.5,2047.5C 697.167,2047.5 667.833,2047.5 638.5,2047.5C 642.956,2045.11 647.623,2042.94 652.5,2041C 680.471,2031.17 709.137,2024.17 738.5,2020C 817.485,2008.68 896.818,2005.35 976.5,2010C 1029.23,2012.26 1081.23,2019.59 1132.5,2032C 1147.11,2035.82 1161.11,2040.99 1174.5,2047.5 Z"/></g>
<g><path style="opacity:0.004" fill="#fefffe" d="M 471.5,2026.5 C 467.818,2029.01 463.818,2031.01 459.5,2032.5C 462.914,2029.46 466.914,2027.46 471.5,2026.5 Z"/></g>
<g><path style="opacity:0.144" fill="#a3a3a3" d="M 1086.5,2047.5 C 966.5,2047.5 846.5,2047.5 726.5,2047.5C 737.835,2043.58 749.502,2040.41 761.5,2038C 842.821,2024.17 924.488,2021.84 1006.5,2031C 1033.89,2033.64 1060.56,2039.14 1086.5,2047.5 Z"/></g>
</svg>
