<?xml version="1.0" encoding="UTF-8"?>
<!DOCTYPE svg PUBLIC "-//W3C//DTD SVG 1.1//EN" "http://www.w3.org/Graphics/SVG/1.1/DTD/svg11.dtd">
<svg xmlns="http://www.w3.org/2000/svg" version="1.1" width="2160px" height="2106px" style="shape-rendering:geometricPrecision; text-rendering:geometricPrecision; image-rendering:optimizeQuality; fill-rule:evenodd; clip-rule:evenodd" xmlns:xlink="http://www.w3.org/1999/xlink">
<g><path style="opacity:1" fill="#330000" d="M 354.5,-0.5 C 837.833,-0.5 1321.17,-0.5 1804.5,-0.5C 1938.66,12.7938 2040.5,76.7938 2110,191.5C 2138.34,242.331 2154.84,296.665 2159.5,354.5C 2159.5,819.833 2159.5,1285.17 2159.5,1750.5C 2146.21,1884.66 2082.21,1986.5 1967.5,2056C 1916.67,2084.34 1862.34,2100.84 1804.5,2105.5C 1321.17,2105.5 837.833,2105.5 354.5,2105.5C 220.336,2092.21 118.503,2028.21 49,1913.5C 20.8743,1862.96 4.37433,1808.96 -0.5,1751.5C -0.5,1285.5 -0.5,819.5 -0.5,353.5C 9.94831,241.002 58.9483,149.502 146.5,79C 207.928,32.131 277.262,5.631 354.5,-0.5 Z"/></g>
<g><path style="opacity:1" fill="#fe9900" d="M 1512.5,466.5 C 1536.23,464.746 1559.23,467.913 1581.5,476C 1615.08,492.941 1634.91,520.107 1641,557.5C 1646.67,598.488 1635.5,633.988 1607.5,664C 1575.52,690.065 1539.19,698.731 1498.5,690C 1455.03,676.988 1428.53,648.155 1419,603.5C 1409.61,553.299 1425.44,513.466 1466.5,484C 1480.77,475.08 1496.11,469.246 1512.5,466.5 Z"/></g>
<g><path style="opacity:1" fill="#fe9900" d="M 756.5,538.5 C 836.167,538.333 915.834,538.5 995.5,539C 998.102,539.883 1000.27,541.383 1002,543.5C 1111.67,852.5 1221.33,1161.5 1331,1470.5C 1333.15,1475.8 1332.99,1480.97 1330.5,1486C 1329.17,1486.67 1327.83,1487.33 1326.5,1488C 1293.83,1488.17 1261.17,1488.33 1228.5,1488.5C 1194.77,1488.66 1161.11,1488.16 1127.5,1487C 1124.67,1485.5 1122.5,1483.33 1121,1480.5C 1096.46,1408.39 1071.63,1336.39 1046.5,1264.5C 934.835,1263.33 823.168,1263.17 711.5,1264C 690.069,1328.63 669.236,1393.46 649,1458.5C 646.469,1465.09 644.136,1471.76 642,1478.5C 639.28,1483.55 635.113,1486.72 629.5,1488C 570.5,1488.67 511.5,1488.67 452.5,1488C 445.868,1484.9 443.701,1479.74 446,1472.5C 544,1189.83 642,907.167 740,624.5C 747.479,598.383 751.146,571.716 751,544.5C 752.36,541.977 754.193,539.977 756.5,538.5 Z"/></g>
<g><path style="opacity:1" fill="#330000" d="M 992.5,1080.5 C 916.332,1080.83 840.332,1080.5 764.5,1079.5C 798.782,974.887 831.616,869.887 863,764.5C 867.9,744.827 872.734,725.16 877.5,705.5C 889.239,745.345 900.739,785.345 912,825.5C 939.16,910.478 965.994,995.478 992.5,1080.5 Z"/></g>
<g><path style="opacity:1" fill="#fe9900" d="M 1434.5,767.5 C 1496.5,767.333 1558.5,767.5 1620.5,768C 1623.91,769.077 1626.41,771.244 1628,774.5C 1628.67,1009.83 1628.67,1245.17 1628,1480.5C 1626.83,1484.33 1624.33,1486.83 1620.5,1488C 1559.17,1488.67 1497.83,1488.67 1436.5,1488C 1433.44,1486.94 1430.94,1485.11 1429,1482.5C 1427.34,1246.54 1427,1010.54 1428,774.5C 1429.69,771.642 1431.86,769.309 1434.5,767.5 Z"/></g>
<g><path style="opacity:1" fill="#c87000" d="M 764.5,1079.5 C 840.332,1080.5 916.332,1080.83 992.5,1080.5C 916.332,1081.83 839.999,1081.83 763.5,1080.5C 763.624,1079.89 763.957,1079.56 764.5,1079.5 Z"/></g>
</svg>
