<?xml version="1.0" encoding="UTF-8"?>
<!DOCTYPE svg PUBLIC "-//W3C//DTD SVG 1.1//EN" "http://www.w3.org/Graphics/SVG/1.1/DTD/svg11.dtd">
<svg xmlns="http://www.w3.org/2000/svg" version="1.1" width="985px" height="1024px" style="shape-rendering:geometricPrecision; text-rendering:geometricPrecision; image-rendering:optimizeQuality; fill-rule:evenodd; clip-rule:evenodd" xmlns:xlink="http://www.w3.org/1999/xlink">
<g><path style="opacity:0.982" fill="#ff2c1f" d="M 198.5,-0.5 C 202.5,-0.5 206.5,-0.5 210.5,-0.5C 274.274,36.5591 338.274,73.3925 402.5,110C 406.636,112.796 409.136,116.629 410,121.5C 410.167,256.835 410.667,392.168 411.5,527.5C 462.833,497.833 514.167,468.167 565.5,438.5C 566.333,369.169 566.833,299.836 567,230.5C 567.25,227.246 568.25,224.246 570,221.5C 574.237,217.964 578.737,214.798 583.5,212C 644.865,176.986 706.199,141.986 767.5,107C 773.595,105.734 779.262,106.734 784.5,110C 845.833,145.333 907.167,180.667 968.5,216C 973.581,218.743 976.747,222.91 978,228.5C 978.667,302.5 978.667,376.5 978,450.5C 976.974,454.722 974.807,458.222 971.5,461C 910.704,495.633 850.038,530.467 789.5,565.5C 788.667,636.164 788.167,706.831 788,777.5C 786.93,780.242 785.43,782.742 783.5,785C 656.167,858.333 528.833,931.667 401.5,1005C 395.686,1007.17 390.019,1006.84 384.5,1004C 257.833,931 131.167,858 4.5,785C 2.44965,783.035 0.782988,780.868 -0.5,778.5C -0.5,558.5 -0.5,338.5 -0.5,118.5C 1.59151,114.572 4.59151,111.406 8.5,109C 72.0594,72.7258 135.393,36.2258 198.5,-0.5 Z M 203.5,34.5 C 256.104,63.8036 308.437,93.637 360.5,124C 308.749,154.293 256.915,184.46 205,214.5C 152.588,184.712 100.421,154.546 48.5,124C 100.335,94.3031 152.002,64.4698 203.5,34.5 Z M 771.5,141.5 C 824.104,170.804 876.437,200.637 928.5,231C 876.473,261.837 824.14,291.837 771.5,321C 719.67,291.252 668.003,261.252 616.5,231C 668.335,201.303 720.002,171.47 771.5,141.5 Z M 31.5,152.5 C 83.5577,182.615 135.724,212.615 188,242.5C 188.333,385.167 188.667,527.833 189,670.5C 191.5,675.667 195.333,679.5 200.5,682C 259.329,714.913 317.996,748.08 376.5,781.5C 377.833,841.5 377.833,901.5 376.5,961.5C 261.833,895.5 147.167,829.5 32.5,763.5C 31.5,559.834 31.1667,356.168 31.5,152.5 Z M 376.5,152.5 C 377.832,284.001 377.832,415.667 376.5,547.5C 324.996,577.419 273.33,607.086 221.5,636.5C 220.167,505.167 220.167,373.833 221.5,242.5C 273.393,212.726 325.06,182.726 376.5,152.5 Z M 599.5,259.5 C 651.473,289.488 703.473,319.488 755.5,349.5C 756.833,408.833 756.833,468.167 755.5,527.5C 703.996,497.581 652.33,467.914 600.5,438.5C 599.5,378.837 599.167,319.17 599.5,259.5 Z M 943.5,260.5 C 944.833,289.826 945.5,319.492 945.5,349.5C 945.167,379.167 944.833,408.833 944.5,438.5C 892.996,468.419 841.33,498.086 789.5,527.5C 788.167,468.167 788.167,408.833 789.5,349.5C 840.896,319.806 892.229,290.14 943.5,260.5 Z M 582.5,466.5 C 634.779,496.31 687.112,526.143 739.5,556C 624.329,622.086 508.996,687.92 393.5,753.5C 341.705,724.2 290.038,694.7 238.5,665C 353.335,598.97 468.002,532.803 582.5,466.5 Z M 755.5,584.5 C 756.831,644.001 756.831,703.668 755.5,763.5C 640.833,829.5 526.167,895.5 411.5,961.5C 410.167,901.5 410.167,841.5 411.5,781.5C 526.229,715.806 640.896,650.14 755.5,584.5 Z"/></g>
</svg>
